<svg xmlns="http://www.w3.org/2000/svg" width="16" height="16" viewBox="0 0 16 16">
    <defs>
        <filter id="e56vh0g33a" color-interpolation-filters="auto">
            <feColorMatrix in="SourceGraphic" values="0 0 0 0 0.501961 0 0 0 0 0.505882 0 0 0 0 0.517647 0 0 0 1.000000 0"/>
        </filter>
    </defs>
    <g fill="none" fill-rule="evenodd">
        <g>
            <g filter="url(#e56vh0g33a)" transform="translate(-621.000000, -1037.000000) translate(621.000000, 1037.000000)">
                <g fill="#404041" fill-rule="nonzero">
                    <path d="M3.6 7.867h4.467c.333 0 .6-.267.6-.6 0-.334-.267-.6-.6-.6H3.6c-.333 0-.6.266-.6.6-.033.333.233.6.6.6zM9.233 8.433H3.567c-.334 0-.6.267-.6.6 0 .334.266.634.633.634h5.667c.333 0 .6-.267.6-.6 0-.334-.3-.634-.634-.634zM3.6 11.433h4.467c.333 0 .6-.266.6-.6 0-.333-.267-.6-.6-.6H3.6c-.333.034-.6.3-.6.6-.033.367.233.6.6.6zM8.967 12.067H3.6c-.333 0-.6.266-.6.6 0 .333.267.6.6.6H9c.333 0 .6-.267.6-.6-.033-.367-.3-.6-.633-.6z" transform="translate(1.000000, 0.000000)"/>
                    <path d="M12 1.667v12.666H1.667V1.667H12M13.667 0H0v16h13.667V0z" transform="translate(1.000000, 0.000000)"/>
                    <path d="M7.733 2.033L7.733 5.633 9.233 4.567 10.7 5.633 10.7 2.033" transform="translate(1.000000, 0.000000)"/>
                </g>
            </g>
        </g>
    </g>
</svg>
