<svg xmlns="http://www.w3.org/2000/svg" width="16" height="16" viewBox="0 0 16 16">
    <defs>
        <filter id="9kri7l2k2a" color-interpolation-filters="auto">
            <feColorMatrix in="SourceGraphic" values="0 0 0 0 0.501961 0 0 0 0 0.505882 0 0 0 0 0.517647 0 0 0 1.000000 0"/>
        </filter>
    </defs>
    <g fill="none" fill-rule="evenodd">
        <g>
            <g filter="url(#9kri7l2k2a)" transform="translate(-622.000000, -510.000000) translate(622.000000, 510.000000)">
                <g fill="#404041">
                    <g>
                        <path d="M8 9.333c2.988 0 5.558-1.017 6.844-2.248C15.624 6.339 16 5.487 16 4.667c0-.82-.376-1.672-1.156-2.419C13.558 1.018 10.988 0 8 0 5.012 0 2.442 1.017 1.156 2.248.376 2.995 0 3.847 0 4.667c0 .82.376 1.672 1.156 2.418C2.442 8.316 5.012 9.333 8 9.333zm0-2.666c-1.894 0-3.581-.483-4.621-1.203-.215-.148-.397-.304-.535-.471-.091-.11-.177-.21-.177-.326 0-.117.086-.217.177-.327.138-.166.32-.322.535-.47C4.419 3.15 6.106 2.667 8 2.667c1.894 0 3.581.482 4.621 1.203.215.148.397.304.535.47.091.11.177.21.177.327 0 .116-.086.216-.177.326-.138.167-.32.323-.535.47-1.04.721-2.727 1.204-4.621 1.204z" transform="translate(0.000000, 1.000000)"/>
                    </g>
                    <g>
                        <path d="M15.189 4.85c0-.729-.329-1.562-1.043-2.33C12.936 1.22 10.486 0 7.459 0 4.893 0 2.931.547 1.716 1.432.682 2.185.103 3.18 0 4.362l2.656.232c.049-.555.444-.95 1.029-1.249.904-.462 2.19-.678 3.774-.678 1.853 0 3.422.58 4.375 1.34.248.197.45.403.583.614.052.081.105.152.105.228h2.667z" transform="translate(0.000000, 1.000000) translate(7.734993, 11.759832) rotate(178.000000) translate(-7.734993, -11.759832) translate(0.140492, 9.335165)"/>
                    </g>
                </g>
            </g>
        </g>
    </g>
</svg>
