<svg xmlns="http://www.w3.org/2000/svg" width="16" height="16" viewBox="0 0 16 16">
    <defs>
        <filter id="bh406fznha" color-interpolation-filters="auto">
            <feColorMatrix in="SourceGraphic" values="0 0 0 0 0.501961 0 0 0 0 0.505882 0 0 0 0 0.517647 0 0 0 1.000000 0"/>
        </filter>
    </defs>
    <g fill="none" fill-rule="evenodd">
        <g>
            <g filter="url(#bh406fznha)" transform="translate(-622.000000, -942.000000) translate(622.000000, 942.000000)">
                <g>
                    <path fill="#404041" d="M7.152 8.078L4.3 0 0 12.185h3.127v2.641c0 .648.526 1.174 1.174 1.174.648 0 1.173-.526 1.173-1.174v-2.641h.805c.426 1.254 1.442 2.237 2.717 2.617v.024c0 .648.526 1.174 1.174 1.174.648 0 1.174-.526 1.174-1.174v-.024c1.697-.505 2.935-2.078 2.935-3.938 0-2.268-1.841-4.108-4.109-4.108-1.193 0-2.267.509-3.018 1.322zm3.018 1.025c.972 0 1.761.79 1.761 1.761 0 .972-.79 1.761-1.76 1.761-.973 0-1.762-.79-1.762-1.76 0-.973.79-1.762 1.761-1.762zm-6.851.734L4.3 7.054l.982 2.783H3.319z" transform="translate(0.721235, 0.000000)"/>
                </g>
            </g>
        </g>
    </g>
</svg>
