<svg xmlns="http://www.w3.org/2000/svg" width="16" height="16" viewBox="0 0 16 16">
    <g fill="none" fill-rule="evenodd">
        <g fill="#808184">
            <g>
                <path d="M8 0c4.41 0 8 3.59 8 8s-3.59 8-8 8-8-3.59-8-8 3.59-8 8-8zm5.924 8.742H12.02c-1.718 0-3.083 1.365-3.083 3.082v2.072c2.598-.416 4.657-2.53 4.987-5.154zm-11.848 0c.327 2.598 2.348 4.696 4.909 5.141v-2.059c0-1.717-1.365-3.083-3.083-3.083zM8 2.029c-2.823 0-5.212 1.997-5.82 4.646l1.683-.314c2.732-.468 5.542-.468 8.274 0l1.681.304C13.206 4.02 10.82 2.029 8 2.029z" transform="translate(-621.000000, -990.000000) translate(621.000000, 990.000000)"/>
            </g>
        </g>
    </g>
</svg>
