<svg xmlns="http://www.w3.org/2000/svg" width="16" height="16" viewBox="0 0 16 16">
    <defs>
        <filter id="62zv956apa" color-interpolation-filters="auto">
            <feColorMatrix in="SourceGraphic" values="0 0 0 0 0.501961 0 0 0 0 0.505882 0 0 0 0 0.517647 0 0 0 1.000000 0"/>
        </filter>
    </defs>
    <g fill="none" fill-rule="evenodd">
        <g>
            <g filter="url(#62zv956apa)" transform="translate(-80.000000, -366.000000) translate(80.000000, 366.000000)">
                <g>
                    <g fill="#808184">
                        <path d="M3.73 1.245l.003 2.414-2.525.072c-.686.02-1.227.593-1.207 1.279.02.686.592 1.227 1.278 1.207l2.525-.072C5.15 6.107 6.221 5.004 6.22 3.657l-.002-2.415C6.218.556 5.66 0 4.973 0 4.287 0 3.73.558 3.731 1.245z" transform="translate(1.076894, 0.000000) translate(7.384511, 11.602542) rotate(45.000000) translate(-7.384511, -11.602542) translate(4.274493, 8.493613)"/>
                    </g>
                    <g fill="#808184">
                        <path d="M3.806 3.733L3.73 1.28c-.02-.686.52-1.26 1.206-1.28.686-.021 1.26.52 1.28 1.205l.075 2.452c.041 1.373-1.038 2.52-2.411 2.561l-.077.001-2.561-.002C.556 6.218-.001 5.66 0 4.973c0-.686.558-1.243 1.245-1.242l2.56.002z" transform="translate(1.076894, 0.000000) translate(7.409587, 4.423983) scale(-1, 1) rotate(-135.000000) translate(-7.409587, -4.423983) translate(4.263181, 1.313933)"/>
                    </g>
                    <g fill="#808184">
                        <path d="M1.244 2.487h1.243c.687 0 1.244-.557 1.244-1.243C3.73.557 3.174 0 2.487 0H1.244C.557 0 0 .557 0 1.244c0 .686.557 1.243 1.244 1.243z" transform="translate(1.076894, 0.000000) translate(0.000000, 6.705157)"/>
                    </g>
                    <g fill="#404041">
                        <path d="M1.244 2.487h1.243c.687 0 1.244-.557 1.244-1.243C3.73.557 3.174 0 2.487 0H1.244C.557 0 0 .557 0 1.244c0 .686.557 1.243 1.244 1.243z" transform="translate(1.076894, 0.000000) translate(5.596165, 6.705157)"/>
                    </g>
                    <g fill="#404041">
                        <path d="M1.244 2.487h1.243c.687 0 1.244-.557 1.244-1.243C3.73.557 3.174 0 2.487 0H1.244C.557 0 0 .557 0 1.244c0 .686.557 1.243 1.244 1.243z" transform="translate(1.076894, 0.000000) translate(11.192330, 6.705157)"/>
                    </g>
                    <g fill="#808184">
                        <path d="M1.244 2.487h1.243c.687 0 1.244-.557 1.244-1.243C3.73.557 3.174 0 2.487 0H1.244C.557 0 0 .557 0 1.244c0 .686.557 1.243 1.244 1.243z" transform="translate(1.076894, 0.000000) translate(5.596165, 6.705157)"/>
                    </g>
                    <g fill="#808184">
                        <path d="M1.244 2.487h1.243c.687 0 1.244-.557 1.244-1.243C3.73.557 3.174 0 2.487 0H1.244C.557 0 0 .557 0 1.244c0 .686.557 1.243 1.244 1.243z" transform="translate(1.076894, 0.000000) translate(11.192330, 6.705157)"/>
                    </g>
                </g>
            </g>
        </g>
    </g>
</svg>
