<svg xmlns="http://www.w3.org/2000/svg" width="16" height="16" viewBox="0 0 16 16">
    <g fill="none" fill-rule="evenodd">
        <g fill="#808184">
            <path d="M16 6.333v6.334C16 14.507 14.508 16 12.667 16H3.333C1.493 16 0 14.508 0 12.667V3.333C0 1.493 1.492 0 3.333 0h6v6.333H16zM13.333 9h-4v4.334h3.334c.368 0 .666-.3.666-.667V9zM2.667 12.667c0 .368.298.666.666.666l3.334.001-.001-3.668h-4v3zm4-10H3.333c-.368 0-.666.298-.666.666l-.001 3h4V2.667z" transform="translate(-80.000000, -318.000000) translate(80.000000, 318.000000)"/>
        </g>
    </g>
</svg>
