<svg xmlns="http://www.w3.org/2000/svg" width="16" height="16" viewBox="0 0 16 16">
    <g fill="none" fill-rule="evenodd">
        <g fill="#808184">
            <path d="M6.433 0c.729 0 1.32.59 1.32 1.32 0 .706-.556 1.283-1.254 1.318l-.066.001H4.505l8.855 8.855V9.567c0-.729.592-1.32 1.32-1.32.707 0 1.284.556 1.318 1.254l.002.066v3.134c0 1.791-1.427 3.249-3.207 3.298l-.092.001H9.567c-.729 0-1.32-.59-1.32-1.32 0-.706.556-1.283 1.254-1.318l.066-.001 1.927-.001-8.855-8.855v1.928c0 .729-.59 1.32-1.32 1.32-.706 0-1.283-.556-1.317-1.254L0 6.433V3.299C0 1.508 1.427.05 3.207.001L3.299 0h3.134z" transform="translate(-80.000000, -270.000000) translate(80.000000, 270.000000)"/>
        </g>
    </g>
</svg>
