<?xml version="1.0" encoding="iso-8859-1"?>
<!-- Generator: Adobe Illustrator 19.0.0, SVG Export Plug-In . SVG Version: 6.00 Build 0)  -->
<svg version="1.1" xmlns="http://www.w3.org/2000/svg" xmlns:xlink="http://www.w3.org/1999/xlink" x="0px" y="0px"
	 viewBox="0 0 520 520" style="enable-background:new 0 0 520 520;" xml:space="preserve">
<g id="_x34_20_x2C__City_x2C__Direction_x2C__Street_x2C__Left_Right">
	<g>
		<path d="M427.5,472.502h-95v-35c0-2.762-2.238-5-5-5h-55v-55h100c2.762,0,5-2.239,5-5c0-2.762-2.238-5-5-5h-100v-80h80
			c1.326,0,2.598-0.527,3.535-1.465l35-35c1.953-1.953,1.953-5.119,0-7.071l-26.465-26.464h32.93c1.326,0,2.598-0.527,3.535-1.464
			l35-35c1.953-1.953,1.953-5.119,0-7.071l-35-35c-0.938-0.938-2.209-1.464-3.535-1.464h-125v-25.2c8.466-1.22,15-8.502,15-17.3
			c0-9.649-7.851-17.5-17.5-17.5h-35c-9.649,0-17.5,7.851-17.5,17.5c0,8.798,6.534,16.08,15,17.3v55.2h-125
			c-1.326,0-2.598,0.527-3.536,1.464l-35,35c-1.953,1.953-1.953,5.119,0,7.071l35,35c0.938,0.938,2.209,1.464,3.536,1.464h125
			v85.001h-175c-2.761,0-5,2.238-5,5c0,2.761,2.239,5,5,5h175v90h-55c-2.761,0-5,2.238-5,5v35h-35c-2.761,0-5,2.238-5,5
			c0,2.761,2.239,5,5,5c8.29,0,275.46,0,290,0c2.762,0,5-2.239,5-5C432.5,474.74,430.262,472.502,427.5,472.502z M380.429,247.501
			l-30,30.001H272.5v-60.001h77.929L380.429,247.501z M395.429,147.501l30,30l-30,30c-12.872,0-109.317,0-122.929,0v-35h60
			c2.762,0,5-2.239,5-5c0-2.761-2.238-5-5-5h-60v-15H395.429z M227.5,95.002c0-4.136,3.364-7.5,7.5-7.5h35
			c4.136,0,7.5,3.364,7.5,7.5c0,4.136-3.364,7.5-7.5,7.5c-10.68,0-24.362,0-35,0C230.864,102.502,227.5,99.137,227.5,95.002z
			 M109.571,237.501l-30-30l30-30H232.5v40h-60c-2.761,0-5,2.239-5,5c0,2.761,2.239,5,5,5h60v10H109.571z M242.5,112.502h20
			c0,8.446,0,310.942,0,320.001h-20C242.5,344.478,242.5,165.838,242.5,112.502z M182.5,472.502v-10h95c2.762,0,5-2.239,5-5
			c0-2.762-2.238-5-5-5h-95v-10c2.496,0,137.616,0,140,0v30H182.5z"/>
		<path d="M477.5,347.502h-140c-2.762,0-5,2.238-5,5c0,2.761,2.238,5,5,5h140c2.762,0,5-2.239,5-5
			C482.5,349.74,480.262,347.502,477.5,347.502z"/>
		<path d="M122.5,357.502c0-2.762-2.239-5-5-5h-75c-2.761,0-5,2.238-5,5c0,2.761,2.239,5,5,5h75
			C120.261,362.502,122.5,360.263,122.5,357.502z"/>
		<path d="M147.5,382.502c2.761,0,5-2.239,5-5c0-2.762-2.239-5-5-5h-40c-2.761,0-5,2.238-5,5c0,2.761,2.239,5,5,5H147.5z"/>
		<path d="M307.5,327.502c-2.762,0-5,2.238-5,5c0,2.761,2.238,5,5,5h65c2.762,0,5-2.239,5-5c0-2.762-2.238-5-5-5H307.5z"/>
		<circle cx="415" cy="410" r="7.5"/>
		<circle cx="115" cy="425" r="7.5"/>
		<circle cx="415" cy="295" r="7.5"/>
		<circle cx="460" cy="140" r="7.5"/>
		<circle cx="340" cy="65" r="7.5"/>
		<circle cx="347.5" cy="167.5" r="5"/>
		<circle cx="180" cy="70" r="7.5"/>
		<circle cx="50" cy="172.5" r="7.5"/>
		<circle cx="115" cy="285" r="7.5"/>
		<path d="M157.5,217.501h-15c-2.761,0-5,2.239-5,5c0,2.761,2.239,5,5,5h15c2.761,0,5-2.239,5-5
			C162.5,219.74,160.261,217.501,157.5,217.501z"/>
		<path d="M92.5,132.501c13.785,0,25-11.215,25-25c0-13.785-11.215-25-25-25s-25,11.215-25,25
			C67.5,121.287,78.715,132.501,92.5,132.501z M92.5,92.502c8.271,0,15,6.729,15,15s-6.729,15-15,15s-15-6.729-15-15
			S84.229,92.502,92.5,92.502z"/>
		<path d="M410,112.502c20.678,0,37.5-16.822,37.5-37.5c0-20.678-16.822-37.5-37.5-37.5s-37.5,16.822-37.5,37.5
			C372.5,95.679,389.322,112.502,410,112.502z M410,47.501c15.163,0,27.5,12.336,27.5,27.5c0,15.163-12.337,27.5-27.5,27.5
			c-15.163,0-27.5-12.337-27.5-27.5C382.5,59.838,394.837,47.501,410,47.501z"/>
	</g>
</g>
<g id="Layer_1">
</g>
</svg>
