<svg xmlns="http://www.w3.org/2000/svg" width="16" height="16" viewBox="0 0 16 16">
    <defs>
        <filter id="t75qbyivla" color-interpolation-filters="auto">
            <feColorMatrix in="SourceGraphic" values="0 0 0 0 0.501961 0 0 0 0 0.505882 0 0 0 0 0.517647 0 0 0 1.000000 0"/>
        </filter>
    </defs>
    <g fill="none" fill-rule="evenodd">
        <g>
            <g filter="url(#t75qbyivla)" transform="translate(-622.000000, -318.000000) translate(622.000000, 318.000000)">
                <g>
                    <path fill="#404041" d="M5.859 6.922L.326 12.454c-.435.435-.435 1.142 0 1.577.435.435 1.142.435 1.577 0l5.533-5.533 1.046 1.047c.544.544 1.426.544 1.97 0l2.118-2.118c.653-.653.653-1.712 0-2.365L7.51 0 1.083 2.146 5.86 6.922zm8.238.34l-3.612 3.612c-.435.435-.435 1.142 0 1.577.435.435 1.141.435 1.576 0l3.612-3.612c.436-.435.436-1.142 0-1.577-.435-.435-1.14-.435-1.576 0zM10.6 6.244L9.467 7.377 5.21 3.119l1.698-.567L10.6 6.244z" transform="translate(0.000000, 1.000000)"/>
                </g>
            </g>
        </g>
    </g>
</svg>
