<svg xmlns:mydata="http://www.w3.org/2000/svg" mydata:contrastcolor="ffffff" mydata:template="InvertedHex1" mydata:presentation="2.5" mydata:layouttype="undefined" mydata:specialfontid="undefined" mydata:id1="588" mydata:id2="028" mydata:companyname="Najemnicy" mydata:companytagline="Nowe oblicze mieszkania" version="1.1" xmlns="http://www.w3.org/2000/svg" xmlns:xlink="http://www.w3.org/1999/xlink" viewBox="0 0 550 470"><g fill="#0975c3" fill-rule="none" stroke="none" stroke-width="1" stroke-linecap="butt" stroke-linejoin="miter" stroke-miterlimit="10" stroke-dasharray="" stroke-dashoffset="0" font-family="none" font-weight="none" font-size="none" text-anchor="none" style="mix-blend-mode: normal"><g data-paper-data="{&quot;isGlobalGroup&quot;:true,&quot;bounds&quot;:{&quot;x&quot;:65.00000000000003,&quot;y&quot;:155.48847310675197,&quot;width&quot;:420,&quot;height&quot;:159.0230537864961}}"><g data-paper-data="{&quot;textHeightFactor&quot;:0.2605409919334948,&quot;isSecondaryText&quot;:true}" fill-rule="nonzero"><path d="M224.80477,252.45986c0,-0.08303 0.01409,-0.15717 0.04226,-0.22241c0.02817,-0.06524 0.06524,-0.1201 0.1112,-0.16458c0.04596,-0.04448 0.09934,-0.07858 0.16013,-0.10231c0.06079,-0.02372 0.12381,-0.03559 0.18905,-0.03559c0.086,0 0.16977,0.02076 0.25132,0.06227c0.08155,0.04152 0.15494,0.10676 0.22018,0.19572l3.36725,5.07534v-4.97748c0,-0.05931 0.01038,-0.1112 0.03114,-0.15569c0.02076,-0.04448 0.04893,-0.08155 0.08451,-0.1112c0.03559,-0.02965 0.07562,-0.0519 0.1201,-0.06672c0.04448,-0.01483 0.09045,-0.02224 0.13789,-0.02224c0.04448,0 0.08896,0.00741 0.13344,0.02224c0.04448,0.01483 0.08451,0.03707 0.1201,0.06672c0.03559,0.02965 0.06376,0.06672 0.08451,0.1112c0.02076,0.04448 0.03114,0.09638 0.03114,0.15569v5.46233c0,0.08303 -0.01483,0.15717 -0.04448,0.22241c-0.02965,0.06524 -0.06969,0.1201 -0.1201,0.16458c-0.05041,0.04448 -0.1075,0.07858 -0.17125,0.10231c-0.06376,0.02372 -0.13122,0.03559 -0.20239,0.03559c-0.086,0 -0.172,-0.02076 -0.25799,-0.06227c-0.086,-0.04152 -0.16162,-0.10676 -0.22686,-0.19572l-3.31387,-5.00417v4.91076c0,0.05931 -0.01112,0.11046 -0.03336,0.15346c-0.02224,0.043 -0.05115,0.07933 -0.08674,0.10898c-0.03559,0.02965 -0.07562,0.0519 -0.1201,0.06672c-0.04448,0.01483 -0.09045,0.02224 -0.13789,0.02224c-0.09489,0 -0.18015,-0.02891 -0.25577,-0.08674c-0.07562,-0.05783 -0.11343,-0.14605 -0.11343,-0.26466z" data-paper-data="{&quot;glyphName&quot;:&quot;N&quot;,&quot;glyphIndex&quot;:0,&quot;firstGlyphOfWord&quot;:true,&quot;word&quot;:1}"></path><path d="M236.88408,255.12875c0,0.30841 0.04003,0.62348 0.1201,0.94523c0.08007,0.32175 0.2061,0.60495 0.37809,0.8496c0.172,0.24465 0.39292,0.44037 0.66277,0.58716c0.26985,0.14679 0.59457,0.22018 0.97415,0.22018c0.37661,0 0.69984,-0.07339 0.9697,-0.22018c0.26985,-0.14679 0.49152,-0.34251 0.665,-0.58716c0.17348,-0.24465 0.30025,-0.52785 0.38032,-0.8496c0.08007,-0.32175 0.1201,-0.63683 0.1201,-0.94523c0,-0.30544 -0.04003,-0.61903 -0.1201,-0.94078c-0.08007,-0.32175 -0.20684,-0.60569 -0.38032,-0.85182c-0.17348,-0.24613 -0.39514,-0.44259 -0.665,-0.58938c-0.26985,-0.14679 -0.59309,-0.22018 -0.9697,-0.22018c-0.37958,0 -0.70429,0.07339 -0.97415,0.22018c-0.26985,0.14679 -0.49078,0.34325 -0.66277,0.58938c-0.172,0.24613 -0.29803,0.53007 -0.37809,0.85182c-0.08007,0.32175 -0.1201,0.63534 -0.1201,0.94078zM236.03448,255.12875c0,-0.45371 0.06524,-0.8837 0.19572,-1.28996c0.13048,-0.40626 0.32175,-0.7547 0.57381,-1.04532c0.25206,-0.29061 0.56417,-0.51524 0.93634,-0.67389c0.37216,-0.15865 0.79844,-0.23798 1.27884,-0.23798c0.4804,0 0.90594,0.07933 1.27662,0.23798c0.37068,0.15865 0.68131,0.38328 0.93189,0.67389c0.25058,0.29061 0.44111,0.63905 0.57159,1.04532c0.13048,0.40626 0.19572,0.83625 0.19572,1.28996c0,0.45371 -0.06524,0.8837 -0.19572,1.28996c-0.13048,0.40626 -0.32101,0.75396 -0.57159,1.04309c-0.25058,0.28913 -0.56121,0.51376 -0.93189,0.67389c-0.37068,0.16013 -0.79622,0.2402 -1.27662,0.2402c-0.4804,0 -0.90668,-0.08007 -1.27884,-0.2402c-0.37216,-0.16013 -0.68427,-0.38477 -0.93634,-0.67389c-0.25206,-0.28913 -0.44333,-0.63683 -0.57381,-1.04309c-0.13048,-0.40626 -0.19572,-0.83625 -0.19572,-1.28996z" data-paper-data="{&quot;glyphName&quot;:&quot;O&quot;,&quot;glyphIndex&quot;:1,&quot;word&quot;:1}"></path><path d="M251.71627,252.70006l-1.62802,5.07979c-0.04745,0.16013 -0.13641,0.2832 -0.26689,0.3692c-0.13048,0.086 -0.26837,0.129 -0.41368,0.129c-0.13641,0 -0.2617,-0.04003 -0.37587,-0.1201c-0.11417,-0.08007 -0.19498,-0.2061 -0.24242,-0.37809l-1.43675,-5.36447c-0.01186,-0.03262 -0.01779,-0.06672 -0.01779,-0.10231c0,-0.05634 0.01334,-0.1075 0.04003,-0.15346c0.02669,-0.04596 0.06079,-0.08526 0.10231,-0.11788c0.04152,-0.03262 0.08822,-0.05857 0.14012,-0.07784c0.0519,-0.01928 0.10305,-0.02891 0.15346,-0.02891c0.07117,0 0.13493,0.01928 0.19127,0.05783c0.05634,0.03855 0.09638,0.10082 0.1201,0.18682l1.38782,5.41785l1.69475,-5.19989c0.04152,-0.1542 0.11491,-0.26985 0.22018,-0.34696c0.10527,-0.0771 0.2187,-0.11565 0.34028,-0.11565c0.12158,0 0.23575,0.03855 0.34251,0.11565c0.10676,0.0771 0.18386,0.19275 0.2313,0.34696l1.76147,5.19544l1.37448,-5.39116c0.02372,-0.09489 0.06598,-0.1631 0.12677,-0.20461c0.06079,-0.04152 0.12826,-0.06227 0.20239,-0.06227c0.04745,0 0.09415,0.00815 0.14012,0.02446c0.04596,0.01631 0.08748,0.03929 0.12455,0.06895c0.03707,0.02965 0.06672,0.06524 0.08896,0.10676c0.02224,0.04152 0.03336,0.08748 0.03336,0.13789c0,0.01483 -0.00148,0.03114 -0.00445,0.04893c-0.00297,0.01779 -0.00741,0.03559 -0.01334,0.05338l-1.45899,5.40006c-0.02372,0.08303 -0.05708,0.15643 -0.10008,0.22018c-0.043,0.06376 -0.09267,0.11639 -0.14901,0.15791c-0.05634,0.04152 -0.11788,0.07265 -0.1846,0.09341c-0.06672,0.02076 -0.13567,0.03114 -0.20684,0.03114c-0.13938,0 -0.26985,-0.04152 -0.39144,-0.12455c-0.12158,-0.08303 -0.20758,-0.20906 -0.25799,-0.37809z" data-paper-data="{&quot;glyphName&quot;:&quot;W&quot;,&quot;glyphIndex&quot;:2,&quot;word&quot;:1}"></path><path d="M262.56383,258.27804c-0.05041,0 -0.0986,-0.01038 -0.14456,-0.03114c-0.04596,-0.02076 -0.08748,-0.04893 -0.12455,-0.08451c-0.03707,-0.03559 -0.06672,-0.07636 -0.08896,-0.12232c-0.02224,-0.04596 -0.03336,-0.09415 -0.03336,-0.14456v-5.57798c0,-0.04745 0.0089,-0.09415 0.02669,-0.14012c0.01779,-0.04596 0.04374,-0.08674 0.07784,-0.12232c0.0341,-0.03559 0.07339,-0.0645 0.11788,-0.08674c0.04448,-0.02224 0.09341,-0.03336 0.14679,-0.03336h3.31832c0.10972,0 0.19127,0.03336 0.24465,0.10008c0.05338,0.06672 0.08007,0.14012 0.08007,0.22018c0,0.08303 -0.02669,0.15791 -0.08007,0.22463c-0.05338,0.06672 -0.13493,0.10008 -0.24465,0.10008h-2.90909v2.11287h2.76675c0.11269,0 0.19572,0.03336 0.2491,0.10008c0.05338,0.06672 0.08007,0.14012 0.08007,0.22018c0,0.08007 -0.02743,0.15346 -0.08229,0.22018c-0.05486,0.06672 -0.13715,0.10008 -0.24687,0.10008h-2.76675v2.29969h3.03364c0.10972,0 0.19127,0.03336 0.24465,0.10008c0.05338,0.06672 0.08007,0.14012 0.08007,0.22018c0,0.08303 -0.02669,0.15791 -0.08007,0.22463c-0.05338,0.06672 -0.13493,0.10008 -0.24465,0.10008z" data-paper-data="{&quot;glyphName&quot;:&quot;E&quot;,&quot;glyphIndex&quot;:3,&quot;lastGlyphOfWord&quot;:true,&quot;word&quot;:1}"></path><path d="M278.80605,255.12875c0,0.30841 0.04003,0.62348 0.1201,0.94523c0.08007,0.32175 0.2061,0.60495 0.37809,0.8496c0.172,0.24465 0.39292,0.44037 0.66277,0.58716c0.26985,0.14679 0.59457,0.22018 0.97415,0.22018c0.37661,0 0.69984,-0.07339 0.9697,-0.22018c0.26985,-0.14679 0.49152,-0.34251 0.665,-0.58716c0.17348,-0.24465 0.30025,-0.52785 0.38032,-0.8496c0.08007,-0.32175 0.1201,-0.63683 0.1201,-0.94523c0,-0.30544 -0.04003,-0.61903 -0.1201,-0.94078c-0.08007,-0.32175 -0.20684,-0.60569 -0.38032,-0.85182c-0.17348,-0.24613 -0.39514,-0.44259 -0.665,-0.58938c-0.26985,-0.14679 -0.59309,-0.22018 -0.9697,-0.22018c-0.37958,0 -0.70429,0.07339 -0.97415,0.22018c-0.26985,0.14679 -0.49078,0.34325 -0.66277,0.58938c-0.172,0.24613 -0.29803,0.53007 -0.37809,0.85182c-0.08007,0.32175 -0.1201,0.63534 -0.1201,0.94078zM277.95646,255.12875c0,-0.45371 0.06524,-0.8837 0.19572,-1.28996c0.13048,-0.40626 0.32175,-0.7547 0.57381,-1.04532c0.25206,-0.29061 0.56417,-0.51524 0.93634,-0.67389c0.37216,-0.15865 0.79844,-0.23798 1.27884,-0.23798c0.4804,0 0.90594,0.07933 1.27662,0.23798c0.37068,0.15865 0.68131,0.38328 0.93189,0.67389c0.25058,0.29061 0.44111,0.63905 0.57159,1.04532c0.13048,0.40626 0.19572,0.83625 0.19572,1.28996c0,0.45371 -0.06524,0.8837 -0.19572,1.28996c-0.13048,0.40626 -0.32101,0.75396 -0.57159,1.04309c-0.25058,0.28913 -0.56121,0.51376 -0.93189,0.67389c-0.37068,0.16013 -0.79622,0.2402 -1.27662,0.2402c-0.4804,0 -0.90668,-0.08007 -1.27884,-0.2402c-0.37216,-0.16013 -0.68427,-0.38477 -0.93634,-0.67389c-0.25206,-0.28913 -0.44333,-0.63683 -0.57381,-1.04309c-0.13048,-0.40626 -0.19572,-0.83625 -0.19572,-1.28996z" data-paper-data="{&quot;glyphName&quot;:&quot;O&quot;,&quot;glyphIndex&quot;:4,&quot;firstGlyphOfWord&quot;:true,&quot;word&quot;:2}"></path><path d="M290.08919,252.31307c0,-0.05338 0.01038,-0.10305 0.03114,-0.14901c0.02076,-0.04596 0.04893,-0.086 0.08451,-0.1201c0.03559,-0.0341 0.0771,-0.06079 0.12455,-0.08007c0.04745,-0.01928 0.09786,-0.02891 0.15124,-0.02891h2.0417c0.28172,0 0.54193,0.03781 0.78065,0.11343c0.23872,0.07562 0.44259,0.18237 0.61162,0.32027c0.16903,0.13789 0.30247,0.3047 0.40033,0.50042c0.09786,0.19572 0.14679,0.41516 0.14679,0.65833c0,0.17496 -0.03114,0.34028 -0.09341,0.49597c-0.06227,0.15569 -0.14753,0.29654 -0.25577,0.42257c-0.10824,0.12603 -0.23723,0.23353 -0.38699,0.32249c-0.14975,0.08896 -0.31211,0.15272 -0.48707,0.19127v0.01779c0.22241,0.03559 0.42554,0.09712 0.6094,0.1846c0.18386,0.08748 0.34028,0.19868 0.46928,0.33361c0.129,0.13493 0.22908,0.29284 0.30025,0.47373c0.07117,0.18089 0.10676,0.38254 0.10676,0.60495c0,0.21055 -0.03633,0.41738 -0.10898,0.62052c-0.07265,0.20313 -0.19572,0.38477 -0.3692,0.5449c-0.17348,0.16013 -0.39885,0.28987 -0.67612,0.38921c-0.27727,0.09934 -0.59828,0.14901 -0.96302,0.14901h-2.12622c-0.05338,0 -0.10379,-0.00964 -0.15124,-0.02891c-0.04745,-0.01928 -0.08896,-0.04596 -0.12455,-0.08007c-0.03559,-0.0341 -0.06376,-0.07414 -0.08451,-0.1201c-0.02076,-0.04596 -0.03114,-0.09564 -0.03114,-0.14901zM290.86762,257.6642h1.33889c0.26985,0 0.51005,-0.01779 0.7206,-0.05338c0.21055,-0.03559 0.38773,-0.0986 0.53155,-0.18905c0.14382,-0.09045 0.25354,-0.21203 0.32916,-0.36475c0.07562,-0.15272 0.11343,-0.34621 0.11343,-0.58048c0,-0.25206 -0.05041,-0.45594 -0.15124,-0.61162c-0.10082,-0.15569 -0.2402,-0.27653 -0.41813,-0.36252c-0.17793,-0.086 -0.38995,-0.14308 -0.63609,-0.17125c-0.24613,-0.02817 -0.51599,-0.04226 -0.80956,-0.04226h-1.01863zM290.86762,252.54882v2.16625h1.31665c0.18682,0 0.36846,-0.01928 0.5449,-0.05783c0.17644,-0.03855 0.33287,-0.10157 0.46928,-0.18905c0.13641,-0.08748 0.24539,-0.20091 0.32694,-0.34028c0.08155,-0.13938 0.12232,-0.31137 0.12232,-0.51599c0,-0.21648 -0.04226,-0.39366 -0.12677,-0.53155c-0.08451,-0.13789 -0.19646,-0.24613 -0.33584,-0.32472c-0.13938,-0.07858 -0.29803,-0.1327 -0.47595,-0.16236c-0.17793,-0.02965 -0.3603,-0.04448 -0.54712,-0.04448z" data-paper-data="{&quot;glyphName&quot;:&quot;B&quot;,&quot;glyphIndex&quot;:5,&quot;word&quot;:2}"></path><path d="M301.08722,258.27804c-0.05338,0 -0.10453,-0.00964 -0.15346,-0.02891c-0.04893,-0.01928 -0.09119,-0.04671 -0.12677,-0.08229c-0.03559,-0.03559 -0.0645,-0.0771 -0.08674,-0.12455c-0.02224,-0.04745 -0.03336,-0.09786 -0.03336,-0.15124v-5.58243c0,-0.06227 0.01112,-0.11639 0.03336,-0.16236c0.02224,-0.04596 0.05264,-0.08451 0.09119,-0.11565c0.03855,-0.03114 0.08155,-0.05486 0.129,-0.07117c0.04745,-0.01631 0.09638,-0.02446 0.14679,-0.02446c0.09786,0 0.18756,0.03114 0.26911,0.09341c0.08155,0.06227 0.12232,0.15569 0.12232,0.28023v5.31999h2.87795c0.11269,0 0.19572,0.03336 0.2491,0.10008c0.05338,0.06672 0.08007,0.1416 0.08007,0.22463c0,0.08007 -0.02743,0.1542 -0.08229,0.22241c-0.05486,0.0682 -0.13715,0.10231 -0.24687,0.10231z" data-paper-data="{&quot;glyphName&quot;:&quot;L&quot;,&quot;glyphIndex&quot;:6,&quot;word&quot;:2}"></path><path d="M309.55147,252.31307c0,-0.06227 0.01112,-0.11713 0.03336,-0.16458c0.02224,-0.04745 0.05264,-0.08674 0.09119,-0.11788c0.03855,-0.03114 0.08155,-0.05486 0.129,-0.07117c0.04745,-0.01631 0.09638,-0.02446 0.14679,-0.02446c0.09786,0 0.18756,0.03114 0.26911,0.09341c0.08155,0.06227 0.12232,0.15717 0.12232,0.28468v5.59133c0,0.06227 -0.01112,0.11713 -0.03336,0.16458c-0.02224,0.04745 -0.05264,0.08674 -0.09119,0.11788c-0.03855,0.03114 -0.08155,0.05412 -0.129,0.06895c-0.04745,0.01483 -0.09638,0.02224 -0.14679,0.02224c-0.09786,0 -0.18756,-0.03114 -0.26911,-0.09341c-0.08155,-0.06227 -0.12232,-0.15569 -0.12232,-0.28023z" data-paper-data="{&quot;glyphName&quot;:&quot;I&quot;,&quot;glyphIndex&quot;:7,&quot;word&quot;:2}"></path><path d="M315.70053,255.14654c0,-0.42109 0.05857,-0.83255 0.1757,-1.23436c0.11713,-0.40182 0.29506,-0.75322 0.53378,-1.05421c0.23872,-0.30099 0.53897,-0.53897 0.90075,-0.71393c0.36178,-0.17496 0.78732,-0.26244 1.27662,-0.26244c0.30247,0 0.58716,0.03262 0.85404,0.09786c0.26689,0.06524 0.5145,0.14975 0.74284,0.25354c0.0682,0.03262 0.11788,0.07858 0.14901,0.13789c0.03114,0.05931 0.04671,0.11862 0.04671,0.17793c0,0.08303 -0.02521,0.15717 -0.07562,0.22241c-0.05041,0.06524 -0.11862,0.09786 -0.20461,0.09786c-0.03559,0 -0.06969,-0.00593 -0.10231,-0.01779c-0.23427,-0.086 -0.46928,-0.1542 -0.70503,-0.20461c-0.23575,-0.05041 -0.45149,-0.07562 -0.64721,-0.07562c-0.26689,0 -0.50338,0.03559 -0.70948,0.10676c-0.2061,0.07117 -0.38699,0.16829 -0.54267,0.29135c-0.15569,0.12307 -0.28765,0.26837 -0.39589,0.43592c-0.10824,0.16755 -0.19646,0.34844 -0.26466,0.54267c-0.0682,0.19424 -0.11713,0.3944 -0.14679,0.6005c-0.02965,0.2061 -0.04448,0.40256 -0.04448,0.58938c0,0.18089 0.01483,0.37439 0.04448,0.58048c0.02965,0.2061 0.07858,0.40626 0.14679,0.6005c0.0682,0.19424 0.15643,0.37513 0.26466,0.54267c0.10824,0.16755 0.2402,0.31285 0.39589,0.43592c0.15569,0.12307 0.33658,0.22018 0.54267,0.29135c0.2061,0.07117 0.44259,0.10676 0.70948,0.10676c0.10082,0 0.21129,-0.00815 0.33139,-0.02446c0.1201,-0.01631 0.24391,-0.04152 0.37142,-0.07562c0.12751,-0.0341 0.25577,-0.07636 0.38477,-0.12677c0.129,-0.05041 0.25429,-0.1112 0.37587,-0.18237c0.02669,-0.01483 0.05412,-0.02521 0.08229,-0.03114c0.02817,-0.00593 0.05412,-0.0089 0.07784,-0.0089c0.0771,0 0.14086,0.02891 0.19127,0.08674c0.05041,0.05783 0.07562,0.12529 0.07562,0.20239c0,0.086 -0.03114,0.16606 -0.09341,0.2402c-0.06227,0.07414 -0.14531,0.14234 -0.2491,0.20461c-0.10379,0.06227 -0.22315,0.11788 -0.35808,0.16681c-0.13493,0.04893 -0.27356,0.09045 -0.4159,0.12455c-0.14234,0.0341 -0.28542,0.06005 -0.42925,0.07784c-0.14382,0.01779 -0.27504,0.02669 -0.39366,0.02669c-0.49523,0 -0.92447,-0.08674 -1.28774,-0.26022c-0.36327,-0.17348 -0.66426,-0.40997 -0.90297,-0.70948c-0.23872,-0.29951 -0.4159,-0.64869 -0.53155,-1.04754c-0.11565,-0.39885 -0.17348,-0.80289 -0.17348,-1.21212z" data-paper-data="{&quot;glyphName&quot;:&quot;C&quot;,&quot;glyphIndex&quot;:8,&quot;word&quot;:2}"></path><path d="M326.5608,258.27804c-0.086,0 -0.15865,-0.01112 -0.21796,-0.03336c-0.05931,-0.02224 -0.10898,-0.0519 -0.14901,-0.08896c-0.04003,-0.03707 -0.06895,-0.08007 -0.08674,-0.129c-0.01779,-0.04893 -0.02669,-0.0986 -0.02669,-0.14901c0,-0.10082 0.02965,-0.19424 0.08896,-0.28023l3.4918,-5.01751h-3.22046c-0.10676,0 -0.18756,-0.03336 -0.24242,-0.10008c-0.05486,-0.06672 -0.08229,-0.1416 -0.08229,-0.22463c0,-0.08007 0.02669,-0.15346 0.08007,-0.22018c0.05338,-0.06672 0.13493,-0.10008 0.24465,-0.10008h3.79872c0.12455,0 0.22315,0.03484 0.2958,0.10453c0.07265,0.06969 0.10898,0.15791 0.10898,0.26466c0,0.04745 -0.00815,0.09786 -0.02446,0.15124c-0.01631,0.05338 -0.04374,0.10676 -0.08229,0.16013l-3.50514,5.01751h3.2427c0.10972,0 0.19201,0.03336 0.24687,0.10008c0.05486,0.06672 0.08229,0.14012 0.08229,0.22018c0,0.08303 -0.02743,0.15791 -0.08229,0.22463c-0.05486,0.06672 -0.13715,0.10008 -0.24687,0.10008z" data-paper-data="{&quot;glyphName&quot;:&quot;Z&quot;,&quot;glyphIndex&quot;:9,&quot;word&quot;:2}"></path><path d="M336.56035,258.27804c-0.05041,0 -0.0986,-0.01038 -0.14456,-0.03114c-0.04596,-0.02076 -0.08748,-0.04893 -0.12455,-0.08451c-0.03707,-0.03559 -0.06672,-0.07636 -0.08896,-0.12232c-0.02224,-0.04596 -0.03336,-0.09415 -0.03336,-0.14456v-5.57798c0,-0.04745 0.0089,-0.09415 0.02669,-0.14012c0.01779,-0.04596 0.04374,-0.08674 0.07784,-0.12232c0.0341,-0.03559 0.07339,-0.0645 0.11788,-0.08674c0.04448,-0.02224 0.09341,-0.03336 0.14679,-0.03336h3.31832c0.10972,0 0.19127,0.03336 0.24465,0.10008c0.05338,0.06672 0.08007,0.14012 0.08007,0.22018c0,0.08303 -0.02669,0.15791 -0.08007,0.22463c-0.05338,0.06672 -0.13493,0.10008 -0.24465,0.10008h-2.90909v2.11287h2.76675c0.11269,0 0.19572,0.03336 0.2491,0.10008c0.05338,0.06672 0.08007,0.14012 0.08007,0.22018c0,0.08007 -0.02743,0.15346 -0.08229,0.22018c-0.05486,0.06672 -0.13715,0.10008 -0.24687,0.10008h-2.76675v2.29969h3.03364c0.10972,0 0.19127,0.03336 0.24465,0.10008c0.05338,0.06672 0.08007,0.14012 0.08007,0.22018c0,0.08303 -0.02669,0.15791 -0.08007,0.22463c-0.05338,0.06672 -0.13493,0.10008 -0.24465,0.10008z" data-paper-data="{&quot;glyphName&quot;:&quot;E&quot;,&quot;glyphIndex&quot;:10,&quot;lastGlyphOfWord&quot;:true,&quot;word&quot;:2}"></path><path d="M356.01208,257.25497l2.10398,-4.65721c0.05634,-0.13344 0.11046,-0.24317 0.16236,-0.32916c0.0519,-0.086 0.10676,-0.15346 0.16458,-0.20239c0.05783,-0.04893 0.12158,-0.08303 0.19127,-0.10231c0.06969,-0.01928 0.1505,-0.02891 0.24242,-0.02891c0.086,0 0.16681,0.01334 0.24242,0.04003c0.07562,0.02669 0.1416,0.0682 0.19794,0.12455c0.05634,0.05634 0.10082,0.12826 0.13344,0.21574c0.03262,0.08748 0.04893,0.19053 0.04893,0.30915v5.3022c0,0.11565 -0.03855,0.20313 -0.11565,0.26244c-0.0771,0.05931 -0.16162,0.08896 -0.25354,0.08896c-0.08896,0 -0.17051,-0.02891 -0.24465,-0.08674c-0.07414,-0.05783 -0.1112,-0.14605 -0.1112,-0.26466v-5.22213l-2.29969,5.08424c-0.04745,0.11269 -0.11491,0.19794 -0.20239,0.25577c-0.08748,0.05783 -0.18015,0.08674 -0.27801,0.08674c-0.09489,0 -0.18386,-0.02743 -0.26689,-0.08229c-0.08303,-0.05486 -0.14975,-0.1416 -0.20017,-0.26022l-2.2908,-5.04865v5.18654c0,0.11565 -0.03855,0.20313 -0.11565,0.26244c-0.0771,0.05931 -0.16162,0.08896 -0.25354,0.08896c-0.08896,0 -0.17051,-0.02891 -0.24465,-0.08674c-0.07414,-0.05783 -0.1112,-0.14605 -0.1112,-0.26466v-5.3022c0,-0.11862 0.01631,-0.22167 0.04893,-0.30915c0.03262,-0.08748 0.0771,-0.15939 0.13344,-0.21574c0.05634,-0.05634 0.12232,-0.09786 0.19794,-0.12455c0.07562,-0.02669 0.15643,-0.04003 0.24242,-0.04003c0.09193,0 0.17422,0.00964 0.24687,0.02891c0.07265,0.01928 0.14012,0.05412 0.20239,0.10453c0.06227,0.05041 0.12084,0.11936 0.1757,0.20684c0.05486,0.08748 0.11195,0.19794 0.17125,0.33139l2.05949,4.64832z" data-paper-data="{&quot;glyphName&quot;:&quot;M&quot;,&quot;glyphIndex&quot;:11,&quot;firstGlyphOfWord&quot;:true,&quot;word&quot;:3}"></path><path d="M365.65288,252.31307c0,-0.06227 0.01112,-0.11713 0.03336,-0.16458c0.02224,-0.04745 0.05264,-0.08674 0.09119,-0.11788c0.03855,-0.03114 0.08155,-0.05486 0.129,-0.07117c0.04745,-0.01631 0.09638,-0.02446 0.14679,-0.02446c0.09786,0 0.18756,0.03114 0.26911,0.09341c0.08155,0.06227 0.12232,0.15717 0.12232,0.28468v5.59133c0,0.06227 -0.01112,0.11713 -0.03336,0.16458c-0.02224,0.04745 -0.05264,0.08674 -0.09119,0.11788c-0.03855,0.03114 -0.08155,0.05412 -0.129,0.06895c-0.04745,0.01483 -0.09638,0.02224 -0.14679,0.02224c-0.09786,0 -0.18756,-0.03114 -0.26911,-0.09341c-0.08155,-0.06227 -0.12232,-0.15569 -0.12232,-0.28023z" data-paper-data="{&quot;glyphName&quot;:&quot;I&quot;,&quot;glyphIndex&quot;:12,&quot;word&quot;:3}"></path><path d="M372.55733,258.27804c-0.05041,0 -0.0986,-0.01038 -0.14456,-0.03114c-0.04596,-0.02076 -0.08748,-0.04893 -0.12455,-0.08451c-0.03707,-0.03559 -0.06672,-0.07636 -0.08896,-0.12232c-0.02224,-0.04596 -0.03336,-0.09415 -0.03336,-0.14456v-5.57798c0,-0.04745 0.0089,-0.09415 0.02669,-0.14012c0.01779,-0.04596 0.04374,-0.08674 0.07784,-0.12232c0.0341,-0.03559 0.07339,-0.0645 0.11788,-0.08674c0.04448,-0.02224 0.09341,-0.03336 0.14679,-0.03336h3.31832c0.10972,0 0.19127,0.03336 0.24465,0.10008c0.05338,0.06672 0.08007,0.14012 0.08007,0.22018c0,0.08303 -0.02669,0.15791 -0.08007,0.22463c-0.05338,0.06672 -0.13493,0.10008 -0.24465,0.10008h-2.90909v2.11287h2.76675c0.11269,0 0.19572,0.03336 0.2491,0.10008c0.05338,0.06672 0.08007,0.14012 0.08007,0.22018c0,0.08007 -0.02743,0.15346 -0.08229,0.22018c-0.05486,0.06672 -0.13715,0.10008 -0.24687,0.10008h-2.76675v2.29969h3.03364c0.10972,0 0.19127,0.03336 0.24465,0.10008c0.05338,0.06672 0.08007,0.14012 0.08007,0.22018c0,0.08303 -0.02669,0.15791 -0.08007,0.22463c-0.05338,0.06672 -0.13493,0.10008 -0.24465,0.10008z" data-paper-data="{&quot;glyphName&quot;:&quot;E&quot;,&quot;glyphIndex&quot;:13,&quot;word&quot;:3}"></path><path d="M382.6424,253.50073c0,0.18979 0.0519,0.35437 0.15569,0.49374c0.10379,0.13938 0.24094,0.25799 0.41145,0.35585c0.17051,0.09786 0.36401,0.18163 0.58048,0.25132c0.21648,0.06969 0.43888,0.14012 0.66722,0.21129c0.25206,0.08007 0.493,0.16606 0.72282,0.25799c0.22982,0.09193 0.43221,0.20684 0.60717,0.34473c0.17496,0.13789 0.31434,0.30544 0.41813,0.50264c0.10379,0.1972 0.15569,0.44111 0.15569,0.73172c0,0.24613 -0.06005,0.47966 -0.18015,0.70058c-0.1201,0.22092 -0.28691,0.40775 -0.50042,0.56047c-0.21351,0.15272 -0.46557,0.26837 -0.75619,0.34696c-0.29061,0.07858 -0.60495,0.11788 -0.94301,0.11788c-0.24317,0 -0.47299,-0.0215 -0.68946,-0.0645c-0.21648,-0.043 -0.41664,-0.10231 -0.6005,-0.17793c-0.18386,-0.07562 -0.3514,-0.16384 -0.50264,-0.26466c-0.15124,-0.10082 -0.28468,-0.21055 -0.40033,-0.32916c-0.02372,-0.02372 -0.04077,-0.05115 -0.05115,-0.08229c-0.01038,-0.03114 -0.01557,-0.06302 -0.01557,-0.09564c0,-0.04152 0.00815,-0.08377 0.02446,-0.12677c0.01631,-0.043 0.03781,-0.08155 0.0645,-0.11565c0.02669,-0.0341 0.05634,-0.06227 0.08896,-0.08451c0.03262,-0.02224 0.06524,-0.03336 0.09786,-0.03336c0.05338,0 0.1075,0.01928 0.16236,0.05783c0.05486,0.03855 0.10898,0.0771 0.16236,0.11565c0.09489,0.0682 0.19868,0.13567 0.31137,0.20239c0.11269,0.06672 0.23798,0.12603 0.37587,0.17793c0.13789,0.0519 0.28913,0.09341 0.45371,0.12455c0.16458,0.03114 0.34621,0.04671 0.5449,0.04671c0.21648,0 0.41813,-0.02224 0.60495,-0.06672c0.18682,-0.04448 0.34844,-0.1112 0.48485,-0.20017c0.13641,-0.08896 0.24391,-0.20017 0.32249,-0.33361c0.07858,-0.13344 0.11788,-0.27579 0.11788,-0.42702c0,-0.21055 -0.0519,-0.38847 -0.15569,-0.53378c-0.10379,-0.14531 -0.2402,-0.26689 -0.40923,-0.36475c-0.16903,-0.09786 -0.36178,-0.18163 -0.57826,-0.25132c-0.21648,-0.06969 -0.4374,-0.14012 -0.66277,-0.21129c-0.24613,-0.08007 -0.48411,-0.16903 -0.71393,-0.26689c-0.22982,-0.09786 -0.43295,-0.21648 -0.6094,-0.35585c-0.17644,-0.13938 -0.3173,-0.30618 -0.42257,-0.50042c-0.10527,-0.19424 -0.15791,-0.41738 -0.15791,-0.66945c0,-0.24613 0.06079,-0.47521 0.18237,-0.68724c0.12158,-0.21203 0.28394,-0.3907 0.48707,-0.536c0.20313,-0.14531 0.4374,-0.25503 0.70281,-0.32916c0.26541,-0.07414 0.54193,-0.1112 0.82958,-0.1112c0.44185,0 0.83699,0.06969 1.18543,0.20906c0.34844,0.13938 0.65758,0.35289 0.92744,0.64053c0.02372,0.02669 0.03929,0.05634 0.04671,0.08896c0.00741,0.03262 0.01112,0.0682 0.01112,0.10676c0,0.03262 -0.00519,0.0682 -0.01557,0.10676c-0.01038,0.03855 -0.02817,0.07339 -0.05338,0.10453c-0.02521,0.03114 -0.05708,0.05708 -0.09564,0.07784c-0.03855,0.02076 -0.08451,0.03114 -0.13789,0.03114c-0.086,0 -0.18237,-0.05338 -0.28913,-0.16013c-0.09489,-0.07117 -0.19498,-0.14012 -0.30025,-0.20684c-0.10527,-0.06672 -0.22018,-0.12455 -0.34473,-0.17348c-0.12455,-0.04893 -0.25799,-0.08822 -0.40033,-0.11788c-0.14234,-0.02965 -0.29654,-0.04448 -0.46261,-0.04448c-0.16606,0 -0.33584,0.01928 -0.50931,0.05783c-0.17348,0.03855 -0.33065,0.09786 -0.4715,0.17793c-0.14086,0.08007 -0.25577,0.18386 -0.34473,0.31137c-0.08896,0.12751 -0.13344,0.26392 -0.13344,0.40923z" data-paper-data="{&quot;glyphName&quot;:&quot;S&quot;,&quot;glyphIndex&quot;:14,&quot;word&quot;:3}"></path><path d="M391.94058,258.27804c-0.086,0 -0.15865,-0.01112 -0.21796,-0.03336c-0.05931,-0.02224 -0.10898,-0.0519 -0.14901,-0.08896c-0.04003,-0.03707 -0.06895,-0.08007 -0.08674,-0.129c-0.01779,-0.04893 -0.02669,-0.0986 -0.02669,-0.14901c0,-0.10082 0.02965,-0.19424 0.08896,-0.28023l3.4918,-5.01751h-3.22046c-0.10676,0 -0.18756,-0.03336 -0.24242,-0.10008c-0.05486,-0.06672 -0.08229,-0.1416 -0.08229,-0.22463c0,-0.08007 0.02669,-0.15346 0.08007,-0.22018c0.05338,-0.06672 0.13493,-0.10008 0.24465,-0.10008h3.79872c0.12455,0 0.22315,0.03484 0.2958,0.10453c0.07265,0.06969 0.10898,0.15791 0.10898,0.26466c0,0.04745 -0.00815,0.09786 -0.02446,0.15124c-0.01631,0.05338 -0.04374,0.10676 -0.08229,0.16013l-3.50514,5.01751h3.2427c0.10972,0 0.19201,0.03336 0.24687,0.10008c0.05486,0.06672 0.08229,0.14012 0.08229,0.22018c0,0.08303 -0.02743,0.15791 -0.08229,0.22463c-0.05486,0.06672 -0.13715,0.10008 -0.24687,0.10008z" data-paper-data="{&quot;glyphName&quot;:&quot;Z&quot;,&quot;glyphIndex&quot;:15,&quot;word&quot;:3}"></path><path d="M402.40494,257.90884c0,0.06227 -0.01112,0.11639 -0.03336,0.16236c-0.02224,0.04596 -0.05264,0.08451 -0.09119,0.11565c-0.03855,0.03114 -0.08155,0.05412 -0.129,0.06895c-0.04745,0.01483 -0.09489,0.02224 -0.14234,0.02224c-0.04745,0 -0.09415,-0.00741 -0.14012,-0.02224c-0.04596,-0.01483 -0.08674,-0.03781 -0.12232,-0.06895c-0.03559,-0.03114 -0.0645,-0.06969 -0.08674,-0.11565c-0.02224,-0.04596 -0.03336,-0.10008 -0.03336,-0.16236v-5.60022c0,-0.12455 0.04077,-0.21796 0.12232,-0.28023c0.08155,-0.06227 0.17125,-0.09341 0.26911,-0.09341c0.04745,0 0.09415,0.00815 0.14012,0.02446c0.04596,0.01631 0.08748,0.04003 0.12455,0.07117c0.03707,0.03114 0.06672,0.06969 0.08896,0.11565c0.02224,0.04596 0.03336,0.10008 0.03336,0.16236v2.42424l2.67779,-2.65999c0.04152,-0.05041 0.08748,-0.086 0.13789,-0.10676c0.05041,-0.02076 0.10082,-0.03114 0.15124,-0.03114c0.09489,0 0.17793,0.03114 0.2491,0.09341c0.07117,0.06227 0.10676,0.13938 0.10676,0.2313c0,0.07414 -0.02965,0.14975 -0.08896,0.22686l-2.402,2.32638l2.6511,2.84682c0.06524,0.08303 0.09786,0.16458 0.09786,0.24465c0,0.05041 -0.01112,0.0986 -0.03336,0.14456c-0.02224,0.04596 -0.05264,0.086 -0.09119,0.1201c-0.03855,0.0341 -0.08155,0.06079 -0.129,0.08007c-0.04745,0.01928 -0.09786,0.02891 -0.15124,0.02891c-0.05338,0 -0.10676,-0.0126 -0.16013,-0.03781c-0.05338,-0.02521 -0.10231,-0.0645 -0.14679,-0.11788l-2.86906,-3.10481z" data-paper-data="{&quot;glyphName&quot;:&quot;K&quot;,&quot;glyphIndex&quot;:16,&quot;word&quot;:3}"></path><path d="M416.79083,257.79764c0.01483,0.05041 0.02224,0.09193 0.02224,0.12455c0,0.05338 -0.01186,0.10231 -0.03559,0.14679c-0.02372,0.04448 -0.0556,0.08229 -0.09564,0.11343c-0.04003,0.03114 -0.08526,0.05486 -0.13567,0.07117c-0.05041,0.01631 -0.10082,0.02446 -0.15124,0.02446c-0.07117,0 -0.13789,-0.01853 -0.20017,-0.0556c-0.06227,-0.03707 -0.10676,-0.09712 -0.13344,-0.18015l-0.56936,-1.42341h-3.14484l-0.56492,1.42341c-0.02965,0.086 -0.07414,0.14679 -0.13344,0.18237c-0.05931,0.03559 -0.12307,0.05338 -0.19127,0.05338c-0.05041,0 -0.09934,-0.00815 -0.14679,-0.02446c-0.04745,-0.01631 -0.0897,-0.04003 -0.12677,-0.07117c-0.03707,-0.03114 -0.06746,-0.0682 -0.09119,-0.1112c-0.02372,-0.043 -0.03559,-0.0897 -0.03559,-0.14012c0,-0.03855 0.0089,-0.08303 0.02669,-0.13344l2.11732,-5.16875c0.05634,-0.14827 0.11269,-0.26837 0.16903,-0.3603c0.05634,-0.09193 0.11343,-0.16236 0.17125,-0.21129c0.05783,-0.04893 0.11862,-0.08155 0.18237,-0.09786c0.06376,-0.01631 0.1327,-0.02446 0.20684,-0.02446c0.07414,0 0.14308,0.00815 0.20684,0.02446c0.06376,0.01631 0.12529,0.04967 0.1846,0.10008c0.05931,0.05041 0.11639,0.12084 0.17125,0.21129c0.05486,0.09045 0.11195,0.2098 0.17125,0.35808zM413.91733,252.58886l-1.34779,3.42952h2.70003l-1.34334,-3.42952z" data-paper-data="{&quot;glyphName&quot;:&quot;A&quot;,&quot;glyphIndex&quot;:17,&quot;word&quot;:3}"></path><path d="M422.47013,252.45986c0,-0.08303 0.01409,-0.15717 0.04226,-0.22241c0.02817,-0.06524 0.06524,-0.1201 0.1112,-0.16458c0.04596,-0.04448 0.09934,-0.07858 0.16013,-0.10231c0.06079,-0.02372 0.12381,-0.03559 0.18905,-0.03559c0.086,0 0.16977,0.02076 0.25132,0.06227c0.08155,0.04152 0.15494,0.10676 0.22018,0.19572l3.36725,5.07534v-4.97748c0,-0.05931 0.01038,-0.1112 0.03114,-0.15569c0.02076,-0.04448 0.04893,-0.08155 0.08451,-0.1112c0.03559,-0.02965 0.07562,-0.0519 0.1201,-0.06672c0.04448,-0.01483 0.09045,-0.02224 0.13789,-0.02224c0.04448,0 0.08896,0.00741 0.13344,0.02224c0.04448,0.01483 0.08451,0.03707 0.1201,0.06672c0.03559,0.02965 0.06376,0.06672 0.08451,0.1112c0.02076,0.04448 0.03114,0.09638 0.03114,0.15569v5.46233c0,0.08303 -0.01483,0.15717 -0.04448,0.22241c-0.02965,0.06524 -0.06969,0.1201 -0.1201,0.16458c-0.05041,0.04448 -0.1075,0.07858 -0.17125,0.10231c-0.06376,0.02372 -0.13122,0.03559 -0.20239,0.03559c-0.086,0 -0.172,-0.02076 -0.25799,-0.06227c-0.086,-0.04152 -0.16162,-0.10676 -0.22686,-0.19572l-3.31387,-5.00417v4.91076c0,0.05931 -0.01112,0.11046 -0.03336,0.15346c-0.02224,0.043 -0.05115,0.07933 -0.08674,0.10898c-0.03559,0.02965 -0.07562,0.0519 -0.1201,0.06672c-0.04448,0.01483 -0.09045,0.02224 -0.13789,0.02224c-0.09489,0 -0.18015,-0.02891 -0.25577,-0.08674c-0.07562,-0.05783 -0.11343,-0.14605 -0.11343,-0.26466z" data-paper-data="{&quot;glyphName&quot;:&quot;N&quot;,&quot;glyphIndex&quot;:18,&quot;word&quot;:3}"></path><path d="M433.32467,252.31307c0,-0.06227 0.01112,-0.11713 0.03336,-0.16458c0.02224,-0.04745 0.05264,-0.08674 0.09119,-0.11788c0.03855,-0.03114 0.08155,-0.05486 0.129,-0.07117c0.04745,-0.01631 0.09638,-0.02446 0.14679,-0.02446c0.09786,0 0.18756,0.03114 0.26911,0.09341c0.08155,0.06227 0.12232,0.15717 0.12232,0.28468v5.59133c0,0.06227 -0.01112,0.11713 -0.03336,0.16458c-0.02224,0.04745 -0.05264,0.08674 -0.09119,0.11788c-0.03855,0.03114 -0.08155,0.05412 -0.129,0.06895c-0.04745,0.01483 -0.09638,0.02224 -0.14679,0.02224c-0.09786,0 -0.18756,-0.03114 -0.26911,-0.09341c-0.08155,-0.06227 -0.12232,-0.15569 -0.12232,-0.28023z" data-paper-data="{&quot;glyphName&quot;:&quot;I&quot;,&quot;glyphIndex&quot;:19,&quot;word&quot;:3}"></path><path d="M444.94491,257.79764c0.01483,0.05041 0.02224,0.09193 0.02224,0.12455c0,0.05338 -0.01186,0.10231 -0.03559,0.14679c-0.02372,0.04448 -0.0556,0.08229 -0.09564,0.11343c-0.04003,0.03114 -0.08526,0.05486 -0.13567,0.07117c-0.05041,0.01631 -0.10082,0.02446 -0.15124,0.02446c-0.07117,0 -0.13789,-0.01853 -0.20017,-0.0556c-0.06227,-0.03707 -0.10676,-0.09712 -0.13344,-0.18015l-0.56936,-1.42341h-3.14484l-0.56492,1.42341c-0.02965,0.086 -0.07414,0.14679 -0.13344,0.18237c-0.05931,0.03559 -0.12307,0.05338 -0.19127,0.05338c-0.05041,0 -0.09934,-0.00815 -0.14679,-0.02446c-0.04745,-0.01631 -0.0897,-0.04003 -0.12677,-0.07117c-0.03707,-0.03114 -0.06746,-0.0682 -0.09119,-0.1112c-0.02372,-0.043 -0.03559,-0.0897 -0.03559,-0.14012c0,-0.03855 0.0089,-0.08303 0.02669,-0.13344l2.11732,-5.16875c0.05634,-0.14827 0.11269,-0.26837 0.16903,-0.3603c0.05634,-0.09193 0.11343,-0.16236 0.17125,-0.21129c0.05783,-0.04893 0.11862,-0.08155 0.18237,-0.09786c0.06376,-0.01631 0.1327,-0.02446 0.20684,-0.02446c0.07414,0 0.14308,0.00815 0.20684,0.02446c0.06376,0.01631 0.12529,0.04967 0.1846,0.10008c0.05931,0.05041 0.11639,0.12084 0.17125,0.21129c0.05486,0.09045 0.11195,0.2098 0.17125,0.35808zM442.07141,252.58886l-1.34779,3.42952h2.70003l-1.34334,-3.42952z" data-paper-data="{&quot;glyphName&quot;:&quot;A&quot;,&quot;glyphIndex&quot;:20,&quot;lastGlyphOfWord&quot;:true,&quot;word&quot;:3}"></path><path d="M223.60437,243.60686v-0.62747h230.07413v0.62747z" data-paper-data="{&quot;isContainerTopLineAboveSecondaryText&quot;:true}"></path><path d="M223.60437,267.90559v-0.62747h230.07413v0.62747z" data-paper-data="{&quot;isContainerBottomLineBelowSecondaryText&quot;:true}"></path></g><g data-paper-data="{&quot;isPrimaryText&quot;:true}" fill-rule="nonzero"><path d="M223.60437,203.52307c0.3604,0 0.63069,0.05149 0.81089,0.15446c0.1802,0.10297 0.30891,0.39901 0.38614,0.88812c0.07723,0.48911 0.12228,1.24208 0.13515,2.25891c0.01287,1.01683 0.01931,2.42624 0.01931,4.22822v6.87326c0,1.80198 -0.00644,3.21138 -0.01931,4.22822c-0.01287,1.01683 -0.05792,1.7698 -0.13515,2.25891c-0.07723,0.48911 -0.20594,0.78515 -0.38614,0.88812c-0.1802,0.10297 -0.45049,0.15446 -0.81089,0.15446v0.57921h4.13168v-0.57921c-0.33465,0 -0.59208,-0.05149 -0.77228,-0.15446c-0.1802,-0.10297 -0.31535,-0.39901 -0.40545,-0.88812c-0.0901,-0.48911 -0.14158,-1.24208 -0.15446,-2.25891c-0.01287,-1.01683 -0.01931,-2.42624 -0.01931,-4.22822v-10.8891c2.57426,3.32079 5.12921,6.61584 7.66485,9.88514c2.53564,3.26931 5.07772,6.56435 7.62623,9.88514h1.54455v-15.75445c0,-1.80198 0.00644,-3.21138 0.01931,-4.22822c0.01287,-1.01683 0.06436,-1.7698 0.15446,-2.25891c0.0901,-0.48911 0.22525,-0.78515 0.40545,-0.88812c0.1802,-0.10297 0.43762,-0.15446 0.77228,-0.15446v-0.57921h-4.13168v0.57921c0.3604,0 0.63069,0.05149 0.81089,0.15446c0.1802,0.10297 0.30891,0.39901 0.38614,0.88812c0.07723,0.48911 0.12228,1.24208 0.13515,2.25891c0.01287,1.01683 0.01931,2.42624 0.01931,4.22822v8.22475l-12.58811,-16.33365h-5.59901z" data-paper-data="{&quot;glyphName&quot;:&quot;N&quot;,&quot;glyphIndex&quot;:0,&quot;firstGlyphOfWord&quot;:true,&quot;word&quot;:1}"></path><path d="M263.32514,216.76761l-6.98911,-0.03861l3.16633,-8.61089zM254.63703,225.45573c-0.30891,0 -0.54703,-0.04505 -0.71436,-0.13515c-0.16733,-0.0901 -0.23168,-0.32822 -0.19307,-0.71436c0.03861,-0.38614 0.17376,-0.95891 0.40545,-1.71832c0.23168,-0.75941 0.59208,-1.80841 1.08119,-3.14703l0.69505,-1.81485h7.91584l0.81089,1.89208c0.59208,1.33861 1.04257,2.38762 1.35148,3.14703c0.30891,0.75941 0.48911,1.31931 0.54059,1.6797c0.05149,0.3604 0,0.58564 -0.15446,0.67574c-0.15446,0.0901 -0.39901,0.13515 -0.73366,0.13515v0.57921h7.99306v-0.57921c-0.33465,0 -0.62426,-0.05149 -0.86881,-0.15446c-0.24455,-0.10297 -0.52129,-0.39901 -0.8302,-0.88812c-0.30891,-0.48911 -0.70148,-1.24208 -1.17772,-2.25891c-0.47624,-1.01683 -1.12624,-2.42624 -1.95,-4.22822l-7.18217,-15.52276h-1.19703l-7.06633,18.26435c-0.43762,1.15842 -0.79158,2.0594 -1.06188,2.70297c-0.2703,0.64356 -0.51485,1.1198 -0.73366,1.42871c-0.21881,0.30891 -0.43119,0.49554 -0.63713,0.5599c-0.20594,0.06436 -0.46337,0.09653 -0.77228,0.09653v0.57921h4.7495v-0.57921z" data-paper-data="{&quot;glyphName&quot;:&quot;A&quot;,&quot;glyphIndex&quot;:1,&quot;word&quot;:1}"></path><path d="M291.50037,202.94386h-7.49108v0.57921c0.3604,0 0.63069,0.05149 0.81089,0.15446c0.1802,0.10297 0.30891,0.39901 0.38614,0.88812c0.07723,0.48911 0.12228,1.24208 0.13515,2.25891c0.01287,1.01683 0.01931,2.42624 0.01931,4.22822v7.99306c0,2.31683 -0.10297,3.96435 -0.30891,4.94257c-0.20594,0.97822 -0.56634,1.46733 -1.08119,1.46733c-0.43762,0 -0.81733,-0.16733 -1.13911,-0.50198c-0.32178,-0.33465 -0.54703,-0.77228 -0.67574,-1.31287c-0.12871,-0.56634 -0.38614,-1.02327 -0.77228,-1.37079c-0.38614,-0.34752 -0.83663,-0.52129 -1.35148,-0.52129c-0.69505,0 -1.21634,0.17376 -1.56386,0.52129c-0.34752,0.34752 -0.45693,0.80446 -0.32822,1.37079c0.20594,0.82376 0.72723,1.49307 1.56386,2.00792c0.83663,0.51485 1.8599,0.77228 3.0698,0.77228c1.33861,0 2.47129,-0.21238 3.39802,-0.63713c0.92673,-0.42475 1.68614,-1.08762 2.27822,-1.98861c0.59208,-0.90099 1.02327,-2.07871 1.29356,-3.53317c0.2703,-1.45445 0.40545,-3.19851 0.40545,-5.23218v-3.97723c0,-1.80198 0.00644,-3.21138 0.01931,-4.22822c0.01287,-1.01683 0.06436,-1.7698 0.15446,-2.25891c0.0901,-0.48911 0.22525,-0.78515 0.40545,-0.88812c0.1802,-0.10297 0.43762,-0.15446 0.77228,-0.15446z" data-paper-data="{&quot;glyphName&quot;:&quot;J&quot;,&quot;glyphIndex&quot;:2,&quot;word&quot;:1}"></path><path d="M313.11125,215.84088v-4.05445h-0.46337l-0.15446,0.19307c-0.15446,0.23168 -0.33465,0.42475 -0.54059,0.57921c-0.20594,0.15446 -0.56634,0.2703 -1.08119,0.34752c-0.51485,0.07723 -1.24208,0.13515 -2.18168,0.17376c-0.9396,0.03861 -2.2203,0.05792 -3.84208,0.05792v-8.99702c2.0594,0 3.68762,0.01931 4.88465,0.05792c1.19703,0.03861 2.13663,0.12228 2.81881,0.25099c0.68218,0.12871 1.19059,0.33465 1.52525,0.61782c0.33465,0.28317 0.66931,0.66931 1.00396,1.15842l0.2703,0.38614h0.42475v-3.66831h-17.06732v0.57921c0.3604,0 0.63069,0.05149 0.81089,0.15446c0.1802,0.10297 0.30891,0.39901 0.38614,0.88812c0.07723,0.48911 0.12228,1.24208 0.13515,2.25891c0.01287,1.01683 0.01931,2.42624 0.01931,4.22822v6.87326c0,1.80198 -0.00644,3.21138 -0.01931,4.22822c-0.01287,1.01683 -0.05792,1.7698 -0.13515,2.25891c-0.07723,0.48911 -0.20594,0.78515 -0.38614,0.88812c-0.1802,0.10297 -0.45049,0.15446 -0.81089,0.15446v0.57921h16.99009l0.11584,-0.57921h0.03861c0.07723,-0.46337 0.16089,-0.97822 0.25099,-1.54455c0.0901,-0.56634 0.17376,-1.08119 0.25099,-1.54455h-0.42475l-0.34752,0.38614c-0.41188,0.48911 -0.81733,0.87525 -1.21634,1.15842c-0.39901,0.28317 -0.95891,0.48911 -1.6797,0.61782c-0.72079,0.12871 -1.69257,0.21238 -2.91534,0.25099c-1.22277,0.03861 -2.86386,0.05792 -4.92326,0.05792v-10.54158c1.62178,0 2.90247,0.01931 3.84208,0.05792c0.9396,0.03861 1.66683,0.10941 2.18168,0.21238c0.51485,0.10297 0.87525,0.23168 1.08119,0.38614c0.20594,0.15446 0.38614,0.37327 0.54059,0.65644l0.15446,0.23168z" data-paper-data="{&quot;glyphName&quot;:&quot;E&quot;,&quot;glyphIndex&quot;:3,&quot;word&quot;:1}"></path><path d="M323.79442,226.03493h4.78812v-0.57921c-0.41188,0 -0.74653,-0.03218 -1.00396,-0.09653c-0.25743,-0.06436 -0.45049,-0.25743 -0.57921,-0.57921c-0.12871,-0.32178 -0.1995,-0.82376 -0.21238,-1.50594c-0.01287,-0.68218 -0.00644,-1.64109 0.01931,-2.87673l0.50198,-11.77722c1.46733,2.96039 2.94109,5.89505 4.42128,8.80396c1.4802,2.90891 2.95396,5.84356 4.42128,8.80396h1.19703l8.6495,-19.73167l0.42475,13.97821c0.02574,1.18416 0.03218,2.11089 0.01931,2.7802c-0.01287,0.66931 -0.05792,1.17129 -0.13515,1.50594c-0.07723,0.33465 -0.1995,0.53416 -0.36683,0.59851c-0.16733,0.06436 -0.40545,0.09653 -0.71436,0.09653v0.57921h7.45247v-0.57921c-0.28317,0 -0.51485,-0.02574 -0.69505,-0.07723c-0.1802,-0.05149 -0.32178,-0.1995 -0.42475,-0.44406c-0.10297,-0.24455 -0.18663,-0.62426 -0.25099,-1.13911c-0.06436,-0.51485 -0.13515,-1.23564 -0.21238,-2.16238c-0.07723,-1.77624 -0.16733,-3.54604 -0.2703,-5.3094c-0.10297,-1.76337 -0.1802,-3.5203 -0.23168,-5.27079c-0.07723,-1.80198 -0.14158,-3.21138 -0.19307,-4.22822c-0.05149,-1.01683 -0.04505,-1.7698 0.01931,-2.25891c0.06436,-0.48911 0.1802,-0.78515 0.34752,-0.88812c0.16733,-0.10297 0.41832,-0.15446 0.75297,-0.15446v-0.57921h-5.63762l-7.45247,17.83959l-8.61089,-17.83959h-5.05841v0.57921c0.33465,0 0.59208,0.05149 0.77228,0.15446c0.1802,0.10297 0.29604,0.39901 0.34752,0.88812c0.05149,0.48911 0.06436,1.24208 0.03861,2.25891c-0.02574,1.01683 -0.07723,2.42624 -0.15446,4.22822l-0.38614,9.15148c-0.05149,1.26139 -0.10297,2.24604 -0.15446,2.95396c-0.05149,0.70792 -0.12871,1.23564 -0.23168,1.58317c-0.10297,0.34752 -0.25099,0.55347 -0.44406,0.61782c-0.19307,0.06436 -0.44406,0.09653 -0.75297,0.09653z" data-paper-data="{&quot;glyphName&quot;:&quot;M&quot;,&quot;glyphIndex&quot;:4,&quot;word&quot;:1}"></path><path d="M358.45677,203.52307c0.3604,0 0.63069,0.05149 0.81089,0.15446c0.1802,0.10297 0.30891,0.39901 0.38614,0.88812c0.07723,0.48911 0.12228,1.24208 0.13515,2.25891c0.01287,1.01683 0.01931,2.42624 0.01931,4.22822v6.87326c0,1.80198 -0.00644,3.21138 -0.01931,4.22822c-0.01287,1.01683 -0.05792,1.7698 -0.13515,2.25891c-0.07723,0.48911 -0.20594,0.78515 -0.38614,0.88812c-0.1802,0.10297 -0.45049,0.15446 -0.81089,0.15446v0.57921h4.13168v-0.57921c-0.33465,0 -0.59208,-0.05149 -0.77228,-0.15446c-0.1802,-0.10297 -0.31535,-0.39901 -0.40545,-0.88812c-0.0901,-0.48911 -0.14158,-1.24208 -0.15446,-2.25891c-0.01287,-1.01683 -0.01931,-2.42624 -0.01931,-4.22822v-10.8891c2.57426,3.32079 5.12921,6.61584 7.66485,9.88514c2.53564,3.26931 5.07772,6.56435 7.62623,9.88514h1.54455v-15.75445c0,-1.80198 0.00644,-3.21138 0.01931,-4.22822c0.01287,-1.01683 0.06436,-1.7698 0.15446,-2.25891c0.0901,-0.48911 0.22525,-0.78515 0.40545,-0.88812c0.1802,-0.10297 0.43762,-0.15446 0.77228,-0.15446v-0.57921h-4.13168v0.57921c0.3604,0 0.63069,0.05149 0.81089,0.15446c0.1802,0.10297 0.30891,0.39901 0.38614,0.88812c0.07723,0.48911 0.12228,1.24208 0.13515,2.25891c0.01287,1.01683 0.01931,2.42624 0.01931,4.22822v8.22475l-12.58811,-16.33365h-5.59901z" data-paper-data="{&quot;glyphName&quot;:&quot;N&quot;,&quot;glyphIndex&quot;:5,&quot;word&quot;:1}"></path><path d="M393.93002,225.45573c-0.33465,0 -0.59208,-0.05149 -0.77228,-0.15446c-0.1802,-0.10297 -0.31535,-0.39901 -0.40545,-0.88812c-0.0901,-0.48911 -0.14158,-1.24208 -0.15446,-2.25891c-0.01287,-1.01683 -0.01931,-2.42624 -0.01931,-4.22822v-6.87326c0,-1.80198 0.00644,-3.21138 0.01931,-4.22822c0.01287,-1.01683 0.06436,-1.7698 0.15446,-2.25891c0.0901,-0.48911 0.22525,-0.78515 0.40545,-0.88812c0.1802,-0.10297 0.43762,-0.15446 0.77228,-0.15446v-0.57921h-7.49108v0.57921c0.3604,0 0.63069,0.05149 0.81089,0.15446c0.1802,0.10297 0.30891,0.39901 0.38614,0.88812c0.07723,0.48911 0.12228,1.24208 0.13515,2.25891c0.01287,1.01683 0.01931,2.42624 0.01931,4.22822v6.87326c0,1.80198 -0.00644,3.21138 -0.01931,4.22822c-0.01287,1.01683 -0.05792,1.7698 -0.13515,2.25891c-0.07723,0.48911 -0.20594,0.78515 -0.38614,0.88812c-0.1802,0.10297 -0.45049,0.15446 -0.81089,0.15446v0.57921h7.49108z" data-paper-data="{&quot;glyphName&quot;:&quot;I&quot;,&quot;glyphIndex&quot;:6,&quot;word&quot;:1}"></path><path d="M424.03594,220.59038c-0.07723,0.12871 -0.16089,0.26386 -0.25099,0.40545c-0.0901,0.14158 -0.17376,0.27673 -0.25099,0.40545c-0.33465,0.54059 -0.78515,1.03614 -1.35148,1.48663c-0.56634,0.45049 -1.21634,0.8302 -1.95,1.13911c-0.73366,0.30891 -1.52525,0.55347 -2.37475,0.73366c-0.8495,0.1802 -1.72475,0.2703 -2.62574,0.2703c-1.31287,0 -2.50346,-0.25099 -3.57178,-0.75297c-1.06832,-0.50198 -1.98861,-1.21634 -2.76089,-2.14307c-0.77228,-0.92673 -1.36436,-2.0401 -1.77624,-3.3401c-0.41188,-1.3 -0.61782,-2.73515 -0.61782,-4.30544c0,-1.59604 0.20594,-3.03762 0.61782,-4.32475c0.41188,-1.28713 1.00396,-2.39406 1.77624,-3.32079c0.77228,-0.92673 1.69257,-1.64109 2.76089,-2.14307c1.06832,-0.50198 2.25891,-0.75297 3.57178,-0.75297c0.90099,0 1.77624,0.0901 2.62574,0.2703c0.8495,0.1802 1.64109,0.42475 2.37475,0.73366c0.73366,0.30891 1.38366,0.68861 1.95,1.13911c0.56634,0.45049 1.01683,0.94604 1.35148,1.48663c0.07723,0.12871 0.16089,0.26386 0.25099,0.40545c0.0901,0.14158 0.17376,0.27673 0.25099,0.40545h0.50198l0.03861,-3.32079c-1.15842,-0.69505 -2.58713,-1.25495 -4.28614,-1.6797c-1.69901,-0.42475 -3.38515,-0.63713 -5.05841,-0.63713c-2.08515,0 -3.9901,0.28317 -5.71485,0.8495c-1.72475,0.56634 -3.19851,1.36436 -4.42128,2.39406c-1.22277,1.0297 -2.16881,2.26535 -2.83812,3.70693c-0.66931,1.44158 -1.00396,3.03762 -1.00396,4.78812c0,1.75049 0.33465,3.34653 1.00396,4.78812c0.66931,1.44158 1.61535,2.67723 2.83812,3.70693c1.22277,1.0297 2.69653,1.82772 4.42128,2.39406c1.72475,0.56634 3.6297,0.8495 5.71485,0.8495c1.67327,0 3.3594,-0.21238 5.05841,-0.63713c1.69901,-0.42475 3.12772,-0.98465 4.28614,-1.6797l-0.03861,-3.32079zM424.26763,205.5696l0.30891,-0.50198zM424.26763,223.37058h-0.03861l0.34752,0.54059z" data-paper-data="{&quot;glyphName&quot;:&quot;C&quot;,&quot;glyphIndex&quot;:7,&quot;word&quot;:1}"></path><path d="M438.69633,226.03493h7.45247v-0.57921c-0.33465,0 -0.59208,-0.05149 -0.77228,-0.15446c-0.1802,-0.10297 -0.31535,-0.39901 -0.40545,-0.88812c-0.0901,-0.48911 -0.14158,-1.24208 -0.15446,-2.25891c-0.01287,-1.01683 -0.01931,-2.42624 -0.01931,-4.22822v-3.47525l2.39406,-3.39802h0.03861c1.26139,-1.80198 2.24604,-3.20495 2.95396,-4.20891c0.70792,-1.00396 1.27426,-1.75049 1.69901,-2.2396c0.42475,-0.48911 0.75297,-0.79158 0.98465,-0.90743c0.23168,-0.11584 0.50198,-0.17376 0.81089,-0.17376v-0.57921h-4.20891v0.57921h0.23168c0.25743,0 0.44406,0.03861 0.5599,0.11584c0.11584,0.07723 0.12871,0.25743 0.03861,0.54059c-0.0901,0.28317 -0.30248,0.70792 -0.63713,1.27426c-0.33465,0.56634 -0.83663,1.33861 -1.50594,2.31683l-4.05445,5.8693l-3.70693,-6.1396c-0.56634,-0.95247 -0.99109,-1.69257 -1.27426,-2.2203c-0.28317,-0.52772 -0.46337,-0.9203 -0.54059,-1.17772c-0.07723,-0.25743 -0.05149,-0.41832 0.07723,-0.48267c0.12871,-0.06436 0.33465,-0.09653 0.61782,-0.09653v-0.57921h-7.99306v0.57921c0.28317,0 0.52772,0.05792 0.73366,0.17376c0.20594,0.11584 0.48911,0.41832 0.8495,0.90743c0.3604,0.48911 0.86238,1.23564 1.50594,2.2396c0.64356,1.00396 1.51881,2.40693 2.62574,4.20891h0.03861l3.01188,4.82673v2.04653c0,1.80198 -0.00644,3.21138 -0.01931,4.22822c-0.01287,1.01683 -0.05792,1.7698 -0.13515,2.25891c-0.07723,0.48911 -0.20594,0.78515 -0.38614,0.88812c-0.1802,0.10297 -0.45049,0.15446 -0.81089,0.15446z" data-paper-data="{&quot;glyphName&quot;:&quot;Y&quot;,&quot;glyphIndex&quot;:8,&quot;lastGlyphOfWord&quot;:true,&quot;word&quot;:1}"></path></g><g data-paper-data="{&quot;fillRule&quot;:&quot;nonzero&quot;,&quot;fillRuleOriginal&quot;:&quot;nonzero&quot;,&quot;isIcon&quot;:true,&quot;iconStyle&quot;:&quot;standalone&quot;,&quot;selectedEffects&quot;:{&quot;container&quot;:&quot;square_simple_outline2_sharp_upright&quot;,&quot;transformation&quot;:&quot;&quot;,&quot;pattern&quot;:&quot;&quot;},&quot;bounds&quot;:{&quot;x&quot;:96.3214129218622,&quot;y&quot;:187.1193869978805,&quot;width&quot;:96.07008463122209,&quot;height&quot;:96.07008463122213},&quot;widthRatioIconToContainer&quot;:&quot;0.6847405472759736&quot;,&quot;heightRatioIconToContainer&quot;:&quot;0.8495540288783789&quot;,&quot;relativeBoundsIconToContainer&quot;:{&quot;top&quot;:&quot;-5.92266538788444e-7&quot;,&quot;left&quot;:&quot;-5.922665381151148e-7&quot;},&quot;iconType&quot;:&quot;icon&quot;,&quot;rawIconId&quot;:&quot;826a3a74-7d8e-4d67-8f98-825452814cda&quot;,&quot;combineTerms&quot;:&quot;undefined&quot;,&quot;isDetailed&quot;:&quot;false&quot;,&quot;suitableAsStandaloneIcon&quot;:true}" fill-rule="nonzero"><path d="M166.3113,265.02611v10.93664h-8.48814l-29.30041,-71.90434l0.24485,8.81461l-6.3661,-6.85581v-11.67119h8.97784l28.97394,71.7411h0.08162l-0.32647,-7.67197zM166.3113,194.34602v58.35596l-6.52934,-6.85581l-0.08162,-51.50016zM141.17335,237.27642l-22.85269,-24.32178v52.80602h-6.85581v-60.478h9.14107l13.54837,14.36454c0.16323,0.4897 1.06102,2.77497 7.01904,17.46598zM177.24794,205.28266v60.478h-9.22269l-12.07928,-12.81383l-7.26389,-17.87407l21.71005,23.09753v-52.88764zM129.01245,275.96274h-6.61096v-57.53979l6.52934,6.93742c0.08162,5.22347 0.08162,8.16167 0.08162,50.60237zM96.32289,188.29428c0.001,-0.0202 0.00249,-0.04036 0.00447,-0.06049c0.00199,-0.02012 0.00447,-0.04018 0.00743,-0.06017c0.00296,-0.02001 0.00641,-0.03992 0.01036,-0.05975c0.00394,-0.01984 0.00837,-0.03956 0.01329,-0.05917c0.00493,-0.01961 0.01033,-0.0391 0.01619,-0.05846c0.00586,-0.01934 0.01221,-0.03853 0.01903,-0.05756c0.00681,-0.01904 0.01408,-0.0379 0.02182,-0.05659c0.00774,-0.01868 0.01593,-0.03716 0.02458,-0.05545c0.00863,-0.01828 0.01772,-0.03634 0.02726,-0.05417c0.00952,-0.01783 0.01949,-0.03541 0.0299,-0.05275c0.01039,-0.01736 0.0212,-0.03443 0.03243,-0.05124c0.01123,-0.01682 0.02286,-0.03335 0.03491,-0.04959c0.01204,-0.01624 0.02448,-0.03217 0.03733,-0.04779c0.01282,-0.01565 0.02602,-0.03095 0.0396,-0.04592c0.01358,-0.01498 0.02752,-0.02962 0.04182,-0.04393c0.0143,-0.0143 0.02894,-0.02824 0.04393,-0.04182c0.01496,-0.01358 0.03027,-0.02678 0.04592,-0.0396c0.01563,-0.01284 0.03156,-0.02528 0.04779,-0.03733c0.01624,-0.01204 0.03276,-0.02368 0.04959,-0.03491c0.0168,-0.01123 0.03388,-0.02204 0.05124,-0.03243c0.01734,-0.01041 0.03492,-0.02038 0.05275,-0.0299c0.01783,-0.00954 0.03588,-0.01862 0.05417,-0.02726c0.01828,-0.00865 0.03677,-0.01684 0.05545,-0.02458c0.01868,-0.00774 0.03754,-0.01501 0.05659,-0.02182c0.01902,-0.00683 0.03821,-0.01317 0.05756,-0.01903c0.01936,-0.00586 0.03885,-0.01125 0.05846,-0.01619c0.01961,-0.00491 0.03934,-0.00934 0.05917,-0.01329c0.01982,-0.00394 0.03973,-0.0074 0.05975,-0.01036c0.01999,-0.00296 0.04005,-0.00543 0.06017,-0.00743c0.02012,-0.00197 0.04028,-0.00346 0.06049,-0.00447c0.0202,-0.00098 0.04041,-0.00148 0.06063,-0.00148h93.59901c0.02029,0 0.04049,0.00049 0.0606,0.00148c0.02029,0.001 0.04049,0.00249 0.0606,0.00447c0.0201,0.00199 0.04011,0.00447 0.06003,0.00743c0.0201,0.00296 0.04002,0.00641 0.05975,0.01036c0.01992,0.00394 0.03964,0.00837 0.05917,0.01329c0.01972,0.00493 0.03926,0.01033 0.05861,0.01619c0.01934,0.00586 0.0385,0.01221 0.05747,0.01903c0.01896,0.00681 0.03784,0.01408 0.05661,0.02182c0.01858,0.00774 0.03708,0.01593 0.05548,0.02458c0.01821,0.00863 0.03623,0.01772 0.05405,0.02726c0.01783,0.00952 0.03547,0.01949 0.05292,0.0299c0.01726,0.01039 0.03433,0.0212 0.05121,0.03243c0.01669,0.01123 0.03319,0.02286 0.0495,0.03491c0.01631,0.01204 0.03224,0.02448 0.04779,0.03733c0.01555,0.01282 0.03082,0.02602 0.0458,0.0396c0.01498,0.01358 0.02968,0.02752 0.0441,0.04182c0.01422,0.0143 0.02816,0.02894 0.04182,0.04393c0.01346,0.01496 0.02665,0.03027 0.03955,0.04592c0.0129,0.01563 0.02532,0.03156 0.03727,0.04779c0.01214,0.01624 0.0238,0.03276 0.03499,0.04959c0.01119,0.0168 0.022,0.03388 0.03243,0.05124c0.01043,0.01734 0.02039,0.03492 0.02987,0.05275c0.00948,0.01783 0.01858,0.03588 0.02731,0.05417c0.00854,0.01828 0.01669,0.03677 0.02446,0.05545c0.00778,0.01868 0.01508,0.03754 0.0219,0.05659c0.00683,0.01902 0.01318,0.03821 0.01906,0.05756c0.00588,0.01936 0.01128,0.03885 0.01622,0.05846c0.00493,0.01961 0.00929,0.03934 0.01308,0.05917c0.00398,0.01982 0.00749,0.03973 0.01052,0.05975c0.00284,0.01999 0.00531,0.04005 0.0074,0.06017c0.0019,0.02012 0.00342,0.04028 0.00455,0.06049c0.00095,0.0202 0.00142,0.04041 0.00142,0.06063v93.59901c0,0.02029 -0.00048,0.04049 -0.00142,0.0606c-0.00114,0.02029 -0.00266,0.04049 -0.00455,0.0606c-0.00208,0.0201 -0.00455,0.04011 -0.0074,0.06003c-0.00304,0.0201 -0.00654,0.04002 -0.01052,0.05975c-0.00379,0.01992 -0.00816,0.03964 -0.01308,0.05917c-0.00493,0.01972 -0.01034,0.03926 -0.01622,0.05861c-0.00588,0.01934 -0.01223,0.0385 -0.01906,0.05747c-0.00683,0.01896 -0.01413,0.03784 -0.0219,0.05661c-0.00778,0.01858 -0.01593,0.03708 -0.02446,0.05548c-0.00872,0.01821 -0.01783,0.03623 -0.02731,0.05405c-0.00948,0.01783 -0.01944,0.03547 -0.02987,0.05292c-0.01043,0.01726 -0.02124,0.03433 -0.03243,0.05121c-0.01119,0.01669 -0.02286,0.03319 -0.03499,0.0495c-0.01195,0.01631 -0.02437,0.03224 -0.03727,0.04779c-0.0129,0.01555 -0.02608,0.03082 -0.03955,0.0458c-0.01366,0.01498 -0.0276,0.02968 -0.04182,0.0441c-0.01442,0.01422 -0.02911,0.02816 -0.0441,0.04182c-0.01498,0.01346 -0.03025,0.02665 -0.0458,0.03955c-0.01555,0.0129 -0.03148,0.02532 -0.04779,0.03727c-0.01631,0.01214 -0.03281,0.0238 -0.0495,0.03499c-0.01688,0.01119 -0.03395,0.022 -0.05121,0.03243c-0.01745,0.01043 -0.03509,0.02039 -0.05292,0.02987c-0.01783,0.00948 -0.03585,0.01858 -0.05405,0.02731c-0.0184,0.00854 -0.03689,0.01669 -0.05548,0.02446c-0.01878,0.00778 -0.03765,0.01508 -0.05661,0.0219c-0.01896,0.00683 -0.03812,0.01318 -0.05747,0.01906c-0.01934,0.00588 -0.03888,0.01128 -0.05861,0.01622c-0.01954,0.00493 -0.03926,0.00929 -0.05917,0.01308c-0.01972,0.00398 -0.03964,0.00749 -0.05975,0.01052c-0.01992,0.00284 -0.03992,0.00531 -0.06003,0.0074c-0.0201,0.0019 -0.0403,0.00342 -0.0606,0.00455c-0.0201,0.00095 -0.0403,0.00142 -0.0606,0.00142h-93.59901c-0.02022,0 -0.04043,-0.00048 -0.06063,-0.00142c-0.0202,-0.00114 -0.04036,-0.00266 -0.06049,-0.00455c-0.02012,-0.00208 -0.04018,-0.00455 -0.06017,-0.0074c-0.02001,-0.00304 -0.03992,-0.00654 -0.05975,-0.01052c-0.01984,-0.00379 -0.03956,-0.00816 -0.05917,-0.01308c-0.01961,-0.00493 -0.0391,-0.01034 -0.05846,-0.01622c-0.01934,-0.00588 -0.03853,-0.01223 -0.05756,-0.01906c-0.01904,-0.00683 -0.0379,-0.01413 -0.05659,-0.0219c-0.01868,-0.00778 -0.03716,-0.01593 -0.05545,-0.02446c-0.01828,-0.00872 -0.03634,-0.01783 -0.05417,-0.02731c-0.01783,-0.00948 -0.03541,-0.01944 -0.05275,-0.02987c-0.01736,-0.01043 -0.03443,-0.02124 -0.05124,-0.03243c-0.01682,-0.01119 -0.03335,-0.02286 -0.04959,-0.03499c-0.01624,-0.01195 -0.03217,-0.02437 -0.04779,-0.03727c-0.01565,-0.0129 -0.03095,-0.02608 -0.04592,-0.03955c-0.01498,-0.01366 -0.02962,-0.0276 -0.04393,-0.04182c-0.0143,-0.01442 -0.02824,-0.02911 -0.04182,-0.0441c-0.01358,-0.01498 -0.02678,-0.03025 -0.0396,-0.0458c-0.01284,-0.01555 -0.02528,-0.03148 -0.03733,-0.04779c-0.01204,-0.01631 -0.02368,-0.03281 -0.03491,-0.0495c-0.01123,-0.01688 -0.02204,-0.03395 -0.03243,-0.05121c-0.01041,-0.01745 -0.02038,-0.03509 -0.0299,-0.05292c-0.00954,-0.01783 -0.01862,-0.03585 -0.02726,-0.05405c-0.00865,-0.0184 -0.01684,-0.03689 -0.02458,-0.05548c-0.00774,-0.01878 -0.01501,-0.03765 -0.02182,-0.05661c-0.00683,-0.01896 -0.01317,-0.03812 -0.01903,-0.05747c-0.00586,-0.01934 -0.01125,-0.03888 -0.01619,-0.05861c-0.00491,-0.01954 -0.00934,-0.03926 -0.01329,-0.05917c-0.00394,-0.01972 -0.0074,-0.03964 -0.01036,-0.05975c-0.00296,-0.01992 -0.00543,-0.03992 -0.00743,-0.06003c-0.00197,-0.0201 -0.00346,-0.0403 -0.00447,-0.0606c-0.00098,-0.0201 -0.00148,-0.0403 -0.00148,-0.0606v-93.59901c0,-0.02022 0.00049,-0.04043 0.00148,-0.06063zM189.92037,280.71835v-91.12794h-91.12794v91.12794z" data-paper-data="{&quot;isPathIcon&quot;:true}"></path></g><g data-paper-data="{&quot;isContainerElementsWrapper&quot;:true}" fill-rule="evenodd"><path d="M65,307.75663c0,1.86506 0.65944,3.457 1.97831,4.77582c1.31899,1.31939 2.9111,1.97908 4.77633,1.97908h406.49046c1.86506,0 3.457,-0.65969 4.77582,-1.97908c1.31939,-1.31882 1.97908,-2.91076 1.97908,-4.77582v-145.51325c0,-1.86506 -0.65969,-3.457 -1.97908,-4.77582c-1.31768,-1.31939 -2.90962,-1.97908 -4.77582,-1.97908h-406.49046c-1.86529,0 -3.4574,0.65969 -4.77633,1.97908c-1.31887,1.31882 -1.97831,2.91076 -1.97831,4.77582zM71.75464,310.36108c-0.7192,0 -1.33311,-0.25412 -1.84175,-0.76236c-0.50864,-0.50881 -0.76296,-1.12284 -0.76296,-1.84209v-145.51325c0,-0.71925 0.25432,-1.33328 0.76296,-1.84209c0.50858,-0.50824 1.1225,-0.76236 1.84175,-0.76236h406.49046c0.71925,0 1.33328,0.25412 1.84209,0.76236c0.50824,0.50881 0.76236,1.12284 0.76236,1.84209v145.51325c0,0.71925 -0.25412,1.33328 -0.76236,1.84209c-0.50881,0.50824 -1.12284,0.76236 -1.84209,0.76236z" data-paper-data="{&quot;isBaseLogoContainer&quot;:true}"></path></g></g></g></svg>