<svg xmlns:mydata="http://www.w3.org/2000/svg" mydata:contrastcolor="003594" mydata:template="Contrast" mydata:presentation="2.5" mydata:layouttype="undefined" mydata:specialfontid="undefined" mydata:id1="015" mydata:id2="028" mydata:companyname="Najemnicy" mydata:companytagline="Nowe oblicze mieszkania" version="1.1" xmlns="http://www.w3.org/2000/svg" xmlns:xlink="http://www.w3.org/1999/xlink" viewBox="225 150 100 100"><g fill="#FFFFFF" fill-rule="none" stroke="none" stroke-width="1" stroke-linecap="butt" stroke-linejoin="miter" stroke-miterlimit="10" stroke-dasharray="" stroke-dashoffset="0" font-family="none" font-weight="none" font-size="none" text-anchor="none" style="mix-blend-mode: normal"><g data-paper-data="{&quot;fillRule&quot;:&quot;nonzero&quot;,&quot;isIcon&quot;:&quot;true&quot;,&quot;iconStyle&quot;:&quot;standalone&quot;,&quot;selectedEffects&quot;:{&quot;container&quot;:&quot;square_simple_outline2_sharp_upright&quot;,&quot;transformation&quot;:&quot;&quot;,&quot;pattern&quot;:&quot;&quot;},&quot;bounds&quot;:{&quot;x&quot;:227.50671390512062,&quot;y&quot;:153.7238897323061,&quot;width&quot;:94.98677537994976,&quot;height&quot;:94.98677537994976},&quot;widthRatioIconToContainer&quot;:&quot;0.6847405472759736&quot;,&quot;heightRatioIconToContainer&quot;:&quot;0.8495540288783789&quot;,&quot;relativeBoundsIconToContainer&quot;:{&quot;top&quot;:&quot;-5.92266538788444e-7&quot;,&quot;left&quot;:&quot;-5.922665381151148e-7&quot;},&quot;iconType&quot;:&quot;icon&quot;,&quot;rawIconId&quot;:&quot;826a3a74-7d8e-4d67-8f98-825452814cda&quot;,&quot;combineTerms&quot;:&quot;undefined&quot;,&quot;isDetailed&quot;:&quot;false&quot;,&quot;suitableAsStandaloneIcon&quot;:true}" fill-rule="nonzero"><path d="M296.70738,230.75211v10.81332h-8.39242l-28.97001,-71.09353l0.24209,8.71521l-6.29432,-6.7785v-11.53959h8.8766l28.64722,70.93213h0.0807l-0.32278,-7.58546zM296.70738,160.86903v57.69793l-6.45571,-6.7785l-0.0807,-50.91943zM271.85289,203.31534l-22.59499,-24.04753v52.21057h-6.7785v-59.79603h9.038l13.3956,14.20257c0.16139,0.48418 1.04905,2.74368 6.93989,17.26903zM307.5207,171.68235v59.79603h-9.11869l-11.94307,-12.66934l-7.18198,-17.67251l21.46524,22.83708v-52.29126zM259.82912,241.56543h-6.53641v-56.89096l6.45571,6.85919c0.0807,5.16457 0.0807,8.06964 0.0807,50.03177zM227.50818,154.88553c0.00099,-0.01997 0.00246,-0.0399 0.00442,-0.0598c0.00197,-0.01989 0.00442,-0.03973 0.00734,-0.05949c0.00293,-0.01979 0.00634,-0.03947 0.01024,-0.05907c0.0039,-0.01961 0.00828,-0.03912 0.01314,-0.05851c0.00488,-0.01939 0.01021,-0.03866 0.01601,-0.0578c0.00579,-0.01913 0.01207,-0.03809 0.01882,-0.05691c0.00673,-0.01883 0.01393,-0.03748 0.02158,-0.05595c0.00765,-0.01847 0.01575,-0.03675 0.0243,-0.05482c0.00853,-0.01808 0.01752,-0.03593 0.02695,-0.05356c0.00941,-0.01763 0.01927,-0.03501 0.02956,-0.05215c0.01028,-0.01716 0.02096,-0.03404 0.03207,-0.05066c0.0111,-0.01663 0.02261,-0.03297 0.03451,-0.04903c0.01191,-0.01605 0.02421,-0.03181 0.03691,-0.04726c0.01268,-0.01547 0.02573,-0.0306 0.03915,-0.0454c0.01343,-0.01481 0.02721,-0.02929 0.04135,-0.04343c0.01414,-0.01414 0.02861,-0.02792 0.04343,-0.04135c0.01479,-0.01343 0.02993,-0.02648 0.0454,-0.03915c0.01545,-0.01269 0.0312,-0.025 0.04726,-0.03691c0.01605,-0.01191 0.0324,-0.02341 0.04903,-0.03451c0.01661,-0.0111 0.0335,-0.02179 0.05066,-0.03207c0.01714,-0.0103 0.03452,-0.02015 0.05215,-0.02956c0.01763,-0.00943 0.03548,-0.01841 0.05356,-0.02695c0.01808,-0.00855 0.03635,-0.01665 0.05482,-0.0243c0.01847,-0.00765 0.03712,-0.01484 0.05595,-0.02158c0.01881,-0.00675 0.03778,-0.01302 0.05691,-0.01882c0.01914,-0.00579 0.03841,-0.01113 0.0578,-0.01601c0.01939,-0.00486 0.03889,-0.00924 0.05851,-0.01314c0.0196,-0.0039 0.03929,-0.00731 0.05907,-0.01024c0.01977,-0.00293 0.0396,-0.00537 0.05949,-0.00734c0.01989,-0.00195 0.03983,-0.00342 0.0598,-0.00442c0.01997,-0.00097 0.03995,-0.00146 0.05994,-0.00146h92.54357c0.02007,0 0.04004,0.00049 0.05991,0.00146c0.02007,0.00099 0.04004,0.00246 0.05991,0.00442c0.01988,0.00197 0.03966,0.00442 0.05935,0.00734c0.01988,0.00293 0.03957,0.00634 0.05907,0.01024c0.01969,0.0039 0.03919,0.00828 0.05851,0.01314c0.0195,0.00488 0.03882,0.01021 0.05795,0.01601c0.01913,0.00579 0.03807,0.01207 0.05682,0.01882c0.01875,0.00673 0.03741,0.01393 0.05598,0.02158c0.01838,0.00765 0.03666,0.01575 0.05485,0.0243c0.018,0.00853 0.03582,0.01752 0.05344,0.02695c0.01763,0.00941 0.03507,0.01927 0.05232,0.02956c0.01706,0.01028 0.03394,0.02096 0.05063,0.03207c0.0165,0.0111 0.03282,0.02261 0.04894,0.03451c0.01613,0.01191 0.03188,0.02421 0.04726,0.03691c0.01538,0.01268 0.03047,0.02573 0.04528,0.03915c0.01481,0.01343 0.02935,0.02721 0.0436,0.04135c0.01406,0.01414 0.02785,0.02861 0.04135,0.04343c0.01331,0.01479 0.02635,0.02993 0.0391,0.0454c0.01275,0.01545 0.02503,0.0312 0.03685,0.04726c0.012,0.01605 0.02353,0.0324 0.0346,0.04903c0.01107,0.01661 0.02175,0.0335 0.03207,0.05066c0.01032,0.01714 0.02016,0.03452 0.02954,0.05215c0.00938,0.01763 0.01838,0.03548 0.027,0.05356c0.00844,0.01808 0.0165,0.03635 0.02419,0.05482c0.00769,0.01847 0.01491,0.03712 0.02166,0.05595c0.00675,0.01881 0.01303,0.03778 0.01885,0.05691c0.00581,0.01914 0.01116,0.03841 0.01603,0.0578c0.00488,0.01939 0.00919,0.03889 0.01294,0.05851c0.00394,0.0196 0.00741,0.03929 0.01041,0.05907c0.00281,0.01977 0.00525,0.0396 0.00731,0.05949c0.00188,0.01989 0.00338,0.03983 0.0045,0.0598c0.00094,0.01997 0.00141,0.03995 0.00141,0.05994v92.54357c0,0.02007 -0.00047,0.04004 -0.00141,0.05991c-0.00113,0.02007 -0.00263,0.04004 -0.0045,0.05991c-0.00206,0.01988 -0.0045,0.03966 -0.00731,0.05935c-0.003,0.01988 -0.00647,0.03957 -0.01041,0.05907c-0.00375,0.01969 -0.00806,0.03919 -0.01294,0.05851c-0.00488,0.0195 -0.01022,0.03882 -0.01603,0.05795c-0.00581,0.01913 -0.0121,0.03807 -0.01885,0.05682c-0.00675,0.01875 -0.01397,0.03741 -0.02166,0.05598c-0.00769,0.01838 -0.01575,0.03666 -0.02419,0.05485c-0.00862,0.018 -0.01763,0.03582 -0.027,0.05344c-0.00938,0.01763 -0.01922,0.03507 -0.02954,0.05232c-0.01032,0.01706 -0.021,0.03394 -0.03207,0.05063c-0.01107,0.0165 -0.0226,0.03282 -0.0346,0.04894c-0.01182,0.01613 -0.0241,0.03188 -0.03685,0.04726c-0.01275,0.01538 -0.02578,0.03047 -0.0391,0.04528c-0.0135,0.01481 -0.02728,0.02935 -0.04135,0.0436c-0.01425,0.01406 -0.02879,0.02785 -0.0436,0.04135c-0.01481,0.01331 -0.02991,0.02635 -0.04528,0.0391c-0.01538,0.01275 -0.03113,0.02503 -0.04726,0.03685c-0.01613,0.012 -0.03244,0.02353 -0.04894,0.0346c-0.01669,0.01107 -0.03357,0.02175 -0.05063,0.03207c-0.01725,0.01032 -0.03469,0.02016 -0.05232,0.02954c-0.01763,0.00938 -0.03544,0.01838 -0.05344,0.027c-0.01819,0.00844 -0.03647,0.0165 -0.05485,0.02419c-0.01857,0.00769 -0.03723,0.01491 -0.05598,0.02166c-0.01875,0.00675 -0.03769,0.01303 -0.05682,0.01885c-0.01913,0.00581 -0.03844,0.01116 -0.05795,0.01603c-0.01932,0.00488 -0.03882,0.00919 -0.05851,0.01294c-0.0195,0.00394 -0.03919,0.00741 -0.05907,0.01041c-0.01969,0.00281 -0.03947,0.00525 -0.05935,0.00731c-0.01988,0.00188 -0.03985,0.00338 -0.05991,0.0045c-0.01988,0.00094 -0.03985,0.00141 -0.05991,0.00141h-92.54357c-0.01999,0 -0.03997,-0.00047 -0.05994,-0.00141c-0.01997,-0.00113 -0.0399,-0.00263 -0.0598,-0.0045c-0.01989,-0.00206 -0.03973,-0.0045 -0.05949,-0.00731c-0.01979,-0.003 -0.03947,-0.00647 -0.05907,-0.01041c-0.01961,-0.00375 -0.03912,-0.00806 -0.05851,-0.01294c-0.01939,-0.00488 -0.03866,-0.01022 -0.0578,-0.01603c-0.01913,-0.00581 -0.03809,-0.0121 -0.05691,-0.01885c-0.01883,-0.00675 -0.03748,-0.01397 -0.05595,-0.02166c-0.01847,-0.00769 -0.03675,-0.01575 -0.05482,-0.02419c-0.01808,-0.00862 -0.03593,-0.01763 -0.05356,-0.027c-0.01763,-0.00938 -0.03501,-0.01922 -0.05215,-0.02954c-0.01716,-0.01032 -0.03404,-0.021 -0.05066,-0.03207c-0.01663,-0.01107 -0.03297,-0.0226 -0.04903,-0.0346c-0.01605,-0.01182 -0.03181,-0.0241 -0.04726,-0.03685c-0.01547,-0.01275 -0.0306,-0.02578 -0.0454,-0.0391c-0.01481,-0.0135 -0.02929,-0.02728 -0.04343,-0.04135c-0.01414,-0.01425 -0.02792,-0.02879 -0.04135,-0.0436c-0.01343,-0.01481 -0.02648,-0.02991 -0.03915,-0.04528c-0.01269,-0.01538 -0.025,-0.03113 -0.03691,-0.04726c-0.01191,-0.01613 -0.02341,-0.03244 -0.03451,-0.04894c-0.0111,-0.01669 -0.02179,-0.03357 -0.03207,-0.05063c-0.0103,-0.01725 -0.02015,-0.03469 -0.02956,-0.05232c-0.00943,-0.01763 -0.01841,-0.03544 -0.02695,-0.05344c-0.00855,-0.01819 -0.01665,-0.03647 -0.0243,-0.05485c-0.00765,-0.01857 -0.01484,-0.03723 -0.02158,-0.05598c-0.00675,-0.01875 -0.01302,-0.03769 -0.01882,-0.05682c-0.00579,-0.01913 -0.01113,-0.03844 -0.01601,-0.05795c-0.00486,-0.01932 -0.00924,-0.03882 -0.01314,-0.05851c-0.0039,-0.0195 -0.00731,-0.03919 -0.01024,-0.05907c-0.00293,-0.01969 -0.00537,-0.03947 -0.00734,-0.05935c-0.00195,-0.01988 -0.00342,-0.03985 -0.00442,-0.05991c-0.00097,-0.01988 -0.00146,-0.03985 -0.00146,-0.05991v-92.54357c0,-0.01999 0.00049,-0.03997 0.00146,-0.05994zM320.05023,246.26741v-90.10036h-90.10036v90.10036z" data-paper-data="{&quot;isPathIcon&quot;:true}"></path></g></g></svg>