<?xml version="1.0" encoding="UTF-8" standalone="no"?><!DOCTYPE svg PUBLIC "-//W3C//DTD SVG 1.1//EN" "http://www.w3.org/Graphics/SVG/1.1/DTD/svg11.dtd"><svg width="100%" height="100%" viewBox="0 0 4767 6467" version="1.1" xmlns="http://www.w3.org/2000/svg" xmlns:xlink="http://www.w3.org/1999/xlink" xml:space="preserve" xmlns:serif="http://www.serif.com/" style="fill-rule:evenodd;clip-rule:evenodd;stroke-linejoin:round;stroke-miterlimit:2;"><g id="Layer-1" serif:id="Layer 1"><path id="path3053" d="M4756.98,5196.05c0.019,1.951 0.029,3.902 0.029,5.854c-0,653.633 -1055.78,1191.49 -2338.82,1191.49c-1283.04,-0 -2338.82,-537.859 -2338.82,-1191.49c-0,-1.952 0.009,-3.903 0.028,-5.854c-0.019,-1.951 -0.028,-3.903 -0.028,-5.854c-0,-653.633 1055.78,-1191.49 2338.82,-1191.49c1283.04,-0 2338.82,537.859 2338.82,1191.49c-0,1.951 -0.01,3.903 -0.029,5.854Z" style="fill:#6f8a91;fill-opacity:0.49;fill-rule:nonzero;"/><path id="path3014" d="M2397.08,308.575c-764.291,1.075 -1383.54,621 -1383.54,1385.54c-0,506.333 271.554,949.166 677,1190.92c395.591,294.646 663.416,751.084 705.708,1271.38l0.82,1.406l0.351,-0.586l0.234,0.586l0.82,-1.406c42.333,-520.333 310.125,-976.75 705.75,-1271.38c405.467,-241.716 677,-684.583 677,-1190.92c0,-764.542 -619.25,-1384.46 -1383.54,-1385.54c-0.195,-0 -0.39,0 -0.585,0l-0.015,0Z" style="fill:#025;fill-rule:nonzero;"/><path id="path3051" d="M3325.84,1688.72c0,509.331 -419.116,928.448 -928.447,928.448c-509.331,-0 -928.447,-419.117 -928.447,-928.448c-0,-509.331 419.116,-928.447 928.447,-928.447c509.331,-0 928.447,419.116 928.447,928.447Z" style="fill:#04a;fill-rule:nonzero;"/><path id="path3055" d="M3307.83,1655.91c-0,491.345 -411.031,895.662 -910.537,895.662c-499.505,-0 -910.536,-404.317 -910.536,-895.662c-0,-491.345 411.031,-895.661 910.536,-895.661c499.506,-0 910.537,404.316 910.537,895.661Z" style="fill:#2a7fff;fill-rule:nonzero;"/></g></svg>