<svg xmlns:mydata="http://www.w3.org/2000/svg" mydata:contrastcolor="ffffff" mydata:template="InvertedHex1" mydata:presentation="2.5" mydata:layouttype="undefined" mydata:specialfontid="undefined" mydata:id1="015" mydata:id2="028" mydata:companyname="Najemnicy" mydata:companytagline="Nowe oblicze mieszkania" version="1.1" xmlns="http://www.w3.org/2000/svg" xmlns:xlink="http://www.w3.org/1999/xlink" viewBox="0 0 550 470"><g fill="none" fill-rule="none" stroke="none" stroke-width="1" stroke-linecap="butt" stroke-linejoin="miter" stroke-miterlimit="10" stroke-dasharray="" stroke-dashoffset="0" font-family="none" font-weight="none" font-size="none" text-anchor="none" style="mix-blend-mode: normal"><g data-paper-data="{&quot;isGlobalGroup&quot;:true,&quot;bounds&quot;:{&quot;x&quot;:150.35219843123525,&quot;y&quot;:106,&quot;width&quot;:249.2956031375295,&quot;height&quot;:258}}"><g data-paper-data="{&quot;textHeightFactor&quot;:0.30389987903416515,&quot;isSecondaryText&quot;:true}" fill="#ffffff" fill-rule="nonzero"><path d="M198.07607,307.15819c0,-0.05539 0.0094,-0.10484 0.02819,-0.14836c0.01879,-0.04352 0.04352,-0.08012 0.07418,-0.10979c0.03066,-0.02967 0.06627,-0.05242 0.10682,-0.06825c0.04055,-0.01583 0.08259,-0.02374 0.12611,-0.02374c0.05737,0 0.11325,0.01385 0.16765,0.04154c0.0544,0.02769 0.10336,0.07121 0.14688,0.13056l2.24622,3.38566v-3.32038c0,-0.03956 0.00692,-0.07418 0.02077,-0.10385c0.01385,-0.02967 0.03264,-0.0544 0.05638,-0.07418c0.02374,-0.01978 0.05044,-0.03462 0.08012,-0.04451c0.02967,-0.00989 0.06033,-0.01484 0.09199,-0.01484c0.02967,0 0.05935,0.00495 0.08902,0.01484c0.02967,0.00989 0.05638,0.02473 0.08012,0.04451c0.02374,0.01978 0.04253,0.04451 0.05638,0.07418c0.01385,0.02967 0.02077,0.06429 0.02077,0.10385v3.64381c0,0.05539 -0.00989,0.10484 -0.02967,0.14836c-0.01978,0.04352 -0.04649,0.08012 -0.08012,0.10979c-0.03363,0.02967 -0.07171,0.05242 -0.11424,0.06825c-0.04253,0.01583 -0.08753,0.02374 -0.13501,0.02374c-0.05737,0 -0.11473,-0.01385 -0.1721,-0.04154c-0.05737,-0.02769 -0.10781,-0.07121 -0.15133,-0.13056l-2.21062,-3.33818v3.27587c0,0.03956 -0.00742,0.07369 -0.02225,0.10237c-0.01484,0.02868 -0.03412,0.05292 -0.05786,0.0727c-0.02374,0.01978 -0.05044,0.03462 -0.08012,0.04451c-0.02967,0.00989 -0.06033,0.01484 -0.09199,0.01484c-0.0633,0 -0.12017,-0.01929 -0.17062,-0.05786c-0.05044,-0.03857 -0.07567,-0.09743 -0.07567,-0.17655z" data-paper-data="{&quot;glyphName&quot;:&quot;N&quot;,&quot;glyphIndex&quot;:0,&quot;firstGlyphOfWord&quot;:true,&quot;word&quot;:1}"></path><path d="M206.13392,308.93855c0,0.20573 0.02671,0.41591 0.08012,0.63054c0.05341,0.21463 0.13748,0.40355 0.25222,0.56675c0.11473,0.1632 0.26211,0.29376 0.44212,0.39168c0.18001,0.09792 0.39663,0.14688 0.64983,0.14688c0.25123,0 0.46685,-0.04896 0.64686,-0.14688c0.18001,-0.09792 0.32788,-0.22848 0.44361,-0.39168c0.11572,-0.1632 0.20029,-0.35212 0.2537,-0.56675c0.05341,-0.21463 0.08012,-0.42481 0.08012,-0.63054c0,-0.20375 -0.02671,-0.41295 -0.08012,-0.62758c-0.05341,-0.21463 -0.13798,-0.40404 -0.2537,-0.56823c-0.11572,-0.16419 -0.26359,-0.29524 -0.44361,-0.39316c-0.18001,-0.09792 -0.39564,-0.14688 -0.64686,-0.14688c-0.25321,0 -0.46982,0.04896 -0.64983,0.14688c-0.18001,0.09792 -0.32739,0.22897 -0.44212,0.39316c-0.11473,0.16419 -0.19881,0.3536 -0.25222,0.56823c-0.05341,0.21463 -0.08012,0.42383 -0.08012,0.62758zM205.56718,308.93855c0,-0.30266 0.04352,-0.5895 0.13056,-0.86051c0.08704,-0.27101 0.21463,-0.50345 0.38278,-0.69731c0.16815,-0.19386 0.37635,-0.34371 0.62461,-0.44954c0.24826,-0.10583 0.53262,-0.15875 0.85309,-0.15875c0.32047,0 0.60433,0.05292 0.85161,0.15875c0.24727,0.10583 0.45449,0.25568 0.62164,0.44954c0.16716,0.19386 0.29425,0.4263 0.38129,0.69731c0.08704,0.27101 0.13056,0.55785 0.13056,0.86051c0,0.30266 -0.04352,0.5895 -0.13056,0.86051c-0.08704,0.27101 -0.21414,0.50295 -0.38129,0.69582c-0.16716,0.19287 -0.37437,0.34272 -0.62164,0.44954c-0.24727,0.10682 -0.53114,0.16023 -0.85161,0.16023c-0.32047,0 -0.60483,-0.05341 -0.85309,-0.16023c-0.24826,-0.10682 -0.45647,-0.25667 -0.62461,-0.44954c-0.16815,-0.19287 -0.29574,-0.42481 -0.38278,-0.69582c-0.08704,-0.27101 -0.13056,-0.55785 -0.13056,-0.86051z" data-paper-data="{&quot;glyphName&quot;:&quot;O&quot;,&quot;glyphIndex&quot;:1,&quot;word&quot;:1}"></path><path d="M216.02817,307.31842l-1.08602,3.38862c-0.03165,0.10682 -0.091,0.18892 -0.17804,0.24628c-0.08704,0.05737 -0.17903,0.08605 -0.27596,0.08605c-0.091,0 -0.17457,-0.02671 -0.25073,-0.08012c-0.07616,-0.05341 -0.13007,-0.13748 -0.16172,-0.25222l-0.95843,-3.57853c-0.00791,-0.02176 -0.01187,-0.04451 -0.01187,-0.06825c0,-0.03759 0.0089,-0.07171 0.02671,-0.10237c0.0178,-0.03066 0.04055,-0.05687 0.06825,-0.07863c0.02769,-0.02176 0.05885,-0.03907 0.09347,-0.05193c0.03462,-0.01286 0.06874,-0.01929 0.10237,-0.01929c0.04748,0 0.09001,0.01286 0.12759,0.03857c0.03759,0.02572 0.06429,0.06726 0.08012,0.12463l0.92579,3.61413l1.13053,-3.46874c0.02769,-0.10287 0.07665,-0.18001 0.14688,-0.23145c0.07023,-0.05143 0.14589,-0.07715 0.227,-0.07715c0.08111,0 0.15727,0.02572 0.22848,0.07715c0.07121,0.05143 0.12265,0.12858 0.1543,0.23145l1.17504,3.46577l0.91689,-3.59633c0.01583,-0.0633 0.04401,-0.1088 0.08457,-0.13649c0.04055,-0.02769 0.08556,-0.04154 0.13501,-0.04154c0.03165,0 0.06281,0.00544 0.09347,0.01632c0.03066,0.01088 0.05836,0.02621 0.08308,0.04599c0.02473,0.01978 0.04451,0.04352 0.05935,0.07121c0.01484,0.02769 0.02225,0.05836 0.02225,0.09199c0,0.00989 -0.00099,0.02077 -0.00297,0.03264c-0.00198,0.01187 -0.00495,0.02374 -0.0089,0.03561l-0.97326,3.60227c-0.01583,0.05539 -0.03808,0.10435 -0.06676,0.14688c-0.02868,0.04253 -0.06182,0.07764 -0.0994,0.10534c-0.03759,0.02769 -0.07863,0.04847 -0.12314,0.06231c-0.04451,0.01385 -0.0905,0.02077 -0.13798,0.02077c-0.09297,0 -0.18001,-0.02769 -0.26112,-0.08308c-0.08111,-0.05539 -0.13847,-0.13946 -0.1721,-0.25222z" data-paper-data="{&quot;glyphName&quot;:&quot;W&quot;,&quot;glyphIndex&quot;:2,&quot;word&quot;:1}"></path><path d="M223.26436,311.03938c-0.03363,0 -0.06577,-0.00692 -0.09644,-0.02077c-0.03066,-0.01385 -0.05836,-0.03264 -0.08308,-0.05638c-0.02473,-0.02374 -0.04451,-0.05094 -0.05935,-0.0816c-0.01484,-0.03066 -0.02225,-0.06281 -0.02225,-0.09644v-3.72096c0,-0.03165 0.00593,-0.06281 0.0178,-0.09347c0.01187,-0.03066 0.02918,-0.05786 0.05193,-0.0816c0.02275,-0.02374 0.04896,-0.04303 0.07863,-0.05786c0.02967,-0.01484 0.06231,-0.02225 0.09792,-0.02225h2.21358c0.07319,0 0.12759,0.02225 0.1632,0.06676c0.03561,0.04451 0.05341,0.09347 0.05341,0.14688c0,0.05539 -0.0178,0.10534 -0.05341,0.14985c-0.03561,0.04451 -0.09001,0.06676 -0.1632,0.06676h-1.94059v1.40945h1.84564c0.07517,0 0.13056,0.02225 0.16617,0.06676c0.03561,0.04451 0.05341,0.09347 0.05341,0.14688c0,0.05341 -0.0183,0.10237 -0.05489,0.14688c-0.0366,0.04451 -0.09149,0.06676 -0.16468,0.06676h-1.84564v1.53408h2.02368c0.07319,0 0.12759,0.02225 0.1632,0.06676c0.03561,0.04451 0.05341,0.09347 0.05341,0.14688c0,0.05539 -0.0178,0.10534 -0.05341,0.14985c-0.03561,0.04451 -0.09001,0.06676 -0.1632,0.06676z" data-paper-data="{&quot;glyphName&quot;:&quot;E&quot;,&quot;glyphIndex&quot;:3,&quot;lastGlyphOfWord&quot;:true,&quot;word&quot;:1}"></path><path d="M234.09921,308.93855c0,0.20573 0.02671,0.41591 0.08012,0.63054c0.05341,0.21463 0.13748,0.40355 0.25222,0.56675c0.11473,0.1632 0.26211,0.29376 0.44212,0.39168c0.18001,0.09792 0.39663,0.14688 0.64983,0.14688c0.25123,0 0.46685,-0.04896 0.64686,-0.14688c0.18001,-0.09792 0.32788,-0.22848 0.44361,-0.39168c0.11572,-0.1632 0.20029,-0.35212 0.2537,-0.56675c0.05341,-0.21463 0.08012,-0.42481 0.08012,-0.63054c0,-0.20375 -0.02671,-0.41295 -0.08012,-0.62758c-0.05341,-0.21463 -0.13798,-0.40404 -0.2537,-0.56823c-0.11572,-0.16419 -0.26359,-0.29524 -0.44361,-0.39316c-0.18001,-0.09792 -0.39564,-0.14688 -0.64686,-0.14688c-0.25321,0 -0.46982,0.04896 -0.64983,0.14688c-0.18001,0.09792 -0.32739,0.22897 -0.44212,0.39316c-0.11473,0.16419 -0.19881,0.3536 -0.25222,0.56823c-0.05341,0.21463 -0.08012,0.42383 -0.08012,0.62758zM233.53246,308.93855c0,-0.30266 0.04352,-0.5895 0.13056,-0.86051c0.08704,-0.27101 0.21463,-0.50345 0.38278,-0.69731c0.16815,-0.19386 0.37635,-0.34371 0.62461,-0.44954c0.24826,-0.10583 0.53262,-0.15875 0.85309,-0.15875c0.32047,0 0.60433,0.05292 0.85161,0.15875c0.24727,0.10583 0.45449,0.25568 0.62164,0.44954c0.16716,0.19386 0.29425,0.4263 0.38129,0.69731c0.08704,0.27101 0.13056,0.55785 0.13056,0.86051c0,0.30266 -0.04352,0.5895 -0.13056,0.86051c-0.08704,0.27101 -0.21414,0.50295 -0.38129,0.69582c-0.16716,0.19287 -0.37437,0.34272 -0.62164,0.44954c-0.24727,0.10682 -0.53114,0.16023 -0.85161,0.16023c-0.32047,0 -0.60483,-0.05341 -0.85309,-0.16023c-0.24826,-0.10682 -0.45647,-0.25667 -0.62461,-0.44954c-0.16815,-0.19287 -0.29574,-0.42481 -0.38278,-0.69582c-0.08704,-0.27101 -0.13056,-0.55785 -0.13056,-0.86051z" data-paper-data="{&quot;glyphName&quot;:&quot;O&quot;,&quot;glyphIndex&quot;:4,&quot;firstGlyphOfWord&quot;:true,&quot;word&quot;:2}"></path><path d="M241.62596,307.06027c0,-0.03561 0.00692,-0.06874 0.02077,-0.0994c0.01385,-0.03066 0.03264,-0.05737 0.05638,-0.08012c0.02374,-0.02275 0.05143,-0.04055 0.08308,-0.05341c0.03165,-0.01286 0.06528,-0.01929 0.10089,-0.01929h1.36198c0.18793,0 0.36151,0.02522 0.52076,0.07567c0.15924,0.05044 0.29524,0.12166 0.408,0.21364c0.11276,0.09199 0.20177,0.20326 0.26705,0.33382c0.06528,0.13056 0.09792,0.27695 0.09792,0.43916c0,0.11671 -0.02077,0.227 -0.06231,0.33085c-0.04154,0.10385 -0.09841,0.19782 -0.17062,0.28189c-0.0722,0.08407 -0.15825,0.15578 -0.25815,0.21513c-0.0999,0.05935 -0.2082,0.10188 -0.32492,0.12759v0.01187c0.14836,0.02374 0.28387,0.06479 0.40652,0.12314c0.12265,0.05836 0.227,0.13254 0.31305,0.22255c0.08605,0.09001 0.15281,0.19535 0.20029,0.31601c0.04748,0.12067 0.07121,0.25519 0.07121,0.40355c0,0.14045 -0.02423,0.27843 -0.0727,0.41393c-0.04847,0.13551 -0.13056,0.25667 -0.24628,0.36349c-0.11572,0.10682 -0.26607,0.19337 -0.45103,0.25964c-0.18496,0.06627 -0.3991,0.0994 -0.64241,0.0994h-1.41836c-0.03561,0 -0.06924,-0.00643 -0.10089,-0.01929c-0.03165,-0.01286 -0.05935,-0.03066 -0.08308,-0.05341c-0.02374,-0.02275 -0.04253,-0.04945 -0.05638,-0.08012c-0.01385,-0.03066 -0.02077,-0.0638 -0.02077,-0.0994zM242.14523,310.62989h0.89315c0.18001,0 0.34025,-0.01187 0.4807,-0.03561c0.14045,-0.02374 0.25865,-0.06577 0.35459,-0.12611c0.09594,-0.06033 0.16913,-0.14144 0.21958,-0.24332c0.05044,-0.10188 0.07567,-0.23095 0.07567,-0.38723c0,-0.16815 -0.03363,-0.30415 -0.10089,-0.408c-0.06726,-0.10385 -0.16023,-0.18447 -0.27892,-0.24183c-0.11869,-0.05737 -0.26013,-0.09545 -0.42432,-0.11424c-0.16419,-0.01879 -0.3442,-0.02819 -0.54004,-0.02819h-0.6795zM242.14523,307.21753v1.44506h0.87831c0.12463,0 0.24579,-0.01286 0.36349,-0.03857c0.1177,-0.02572 0.22205,-0.06775 0.31305,-0.12611c0.091,-0.05836 0.16369,-0.13402 0.21809,-0.227c0.0544,-0.09297 0.0816,-0.20771 0.0816,-0.3442c0,-0.14441 -0.02819,-0.2626 -0.08457,-0.35459c-0.05638,-0.09199 -0.13105,-0.16419 -0.22403,-0.21661c-0.09297,-0.05242 -0.19881,-0.08852 -0.3175,-0.10831c-0.11869,-0.01978 -0.24035,-0.02967 -0.36497,-0.02967z" data-paper-data="{&quot;glyphName&quot;:&quot;B&quot;,&quot;glyphIndex&quot;:5,&quot;word&quot;:2}"></path><path d="M248.96252,311.03938c-0.03561,0 -0.06973,-0.00643 -0.10237,-0.01929c-0.03264,-0.01286 -0.06083,-0.03116 -0.08457,-0.05489c-0.02374,-0.02374 -0.04303,-0.05143 -0.05786,-0.08308c-0.01484,-0.03165 -0.02225,-0.06528 -0.02225,-0.10089v-3.72392c0,-0.04154 0.00742,-0.07764 0.02225,-0.10831c0.01484,-0.03066 0.03511,-0.05638 0.06083,-0.07715c0.02572,-0.02077 0.0544,-0.0366 0.08605,-0.04748c0.03165,-0.01088 0.06429,-0.01632 0.09792,-0.01632c0.06528,0 0.12512,0.02077 0.17952,0.06231c0.0544,0.04154 0.0816,0.10385 0.0816,0.18694v3.54885h1.91982c0.07517,0 0.13056,0.02225 0.16617,0.06676c0.03561,0.04451 0.05341,0.09446 0.05341,0.14985c0,0.05341 -0.0183,0.10287 -0.05489,0.14836c-0.0366,0.0455 -0.09149,0.06825 -0.16468,0.06825z" data-paper-data="{&quot;glyphName&quot;:&quot;L&quot;,&quot;glyphIndex&quot;:6,&quot;word&quot;:2}"></path><path d="M254.60885,307.06027c0,-0.04154 0.00742,-0.07814 0.02225,-0.10979c0.01484,-0.03165 0.03511,-0.05786 0.06083,-0.07863c0.02572,-0.02077 0.0544,-0.0366 0.08605,-0.04748c0.03165,-0.01088 0.06429,-0.01632 0.09792,-0.01632c0.06528,0 0.12512,0.02077 0.17952,0.06231c0.0544,0.04154 0.0816,0.10484 0.0816,0.18991v3.72986c0,0.04154 -0.00742,0.07814 -0.02225,0.10979c-0.01484,0.03165 -0.03511,0.05786 -0.06083,0.07863c-0.02572,0.02077 -0.0544,0.0361 -0.08605,0.04599c-0.03165,0.00989 -0.06429,0.01484 -0.09792,0.01484c-0.06528,0 -0.12512,-0.02077 -0.17952,-0.06231c-0.0544,-0.04154 -0.0816,-0.10385 -0.0816,-0.18694z" data-paper-data="{&quot;glyphName&quot;:&quot;I&quot;,&quot;glyphIndex&quot;:7,&quot;word&quot;:2}"></path><path d="M258.71076,308.95042c0,-0.2809 0.03907,-0.55537 0.11721,-0.82342c0.07814,-0.26804 0.19683,-0.50246 0.35607,-0.70324c0.15924,-0.20079 0.35953,-0.35953 0.60087,-0.47625c0.24134,-0.11671 0.52521,-0.17507 0.85161,-0.17507c0.20177,0 0.39168,0.02176 0.56972,0.06528c0.17804,0.04352 0.34321,0.0999 0.49553,0.16913c0.0455,0.02176 0.07863,0.05242 0.0994,0.09199c0.02077,0.03956 0.03116,0.07913 0.03116,0.11869c0,0.05539 -0.01681,0.10484 -0.05044,0.14836c-0.03363,0.04352 -0.07913,0.06528 -0.13649,0.06528c-0.02374,0 -0.04649,-0.00396 -0.06825,-0.01187c-0.15628,-0.05737 -0.31305,-0.10287 -0.47031,-0.13649c-0.15727,-0.03363 -0.30118,-0.05044 -0.43174,-0.05044c-0.17804,0 -0.3358,0.02374 -0.47328,0.07121c-0.13748,0.04748 -0.25815,0.11226 -0.36201,0.19436c-0.10385,0.08209 -0.19188,0.17903 -0.26409,0.29079c-0.0722,0.11177 -0.13105,0.23244 -0.17655,0.36201c-0.0455,0.12957 -0.07814,0.2631 -0.09792,0.40058c-0.01978,0.13748 -0.02967,0.26854 -0.02967,0.39316c0,0.12067 0.00989,0.24975 0.02967,0.38723c0.01978,0.13748 0.05242,0.27101 0.09792,0.40058c0.0455,0.12957 0.10435,0.25024 0.17655,0.36201c0.0722,0.11177 0.16023,0.2087 0.26409,0.29079c0.10385,0.08209 0.22452,0.14688 0.36201,0.19436c0.13748,0.04748 0.29524,0.07121 0.47328,0.07121c0.06726,0 0.14095,-0.00544 0.22106,-0.01632c0.08012,-0.01088 0.16271,-0.02769 0.24777,-0.05044c0.08506,-0.02275 0.17062,-0.05094 0.25667,-0.08457c0.08605,-0.03363 0.16963,-0.07418 0.25073,-0.12166c0.0178,-0.00989 0.0361,-0.01681 0.05489,-0.02077c0.01879,-0.00396 0.0361,-0.00593 0.05193,-0.00593c0.05143,0 0.09396,0.01929 0.12759,0.05786c0.03363,0.03857 0.05044,0.08358 0.05044,0.13501c0,0.05737 -0.02077,0.11078 -0.06231,0.16023c-0.04154,0.04945 -0.09693,0.09495 -0.16617,0.13649c-0.06924,0.04154 -0.14886,0.07863 -0.23887,0.11127c-0.09001,0.03264 -0.18249,0.06033 -0.27744,0.08308c-0.09495,0.02275 -0.1904,0.04006 -0.28634,0.05193c-0.09594,0.01187 -0.18348,0.0178 -0.2626,0.0178c-0.33036,0 -0.6167,-0.05786 -0.85902,-0.17359c-0.24233,-0.11572 -0.44311,-0.27348 -0.60236,-0.47328c-0.15924,-0.1998 -0.27744,-0.43273 -0.35459,-0.69879c-0.07715,-0.26607 -0.11572,-0.53559 -0.11572,-0.80858z" data-paper-data="{&quot;glyphName&quot;:&quot;C&quot;,&quot;glyphIndex&quot;:8,&quot;word&quot;:2}"></path><path d="M265.95542,311.03938c-0.05737,0 -0.10583,-0.00742 -0.1454,-0.02225c-0.03956,-0.01484 -0.0727,-0.03462 -0.0994,-0.05935c-0.02671,-0.02473 -0.04599,-0.05341 -0.05786,-0.08605c-0.01187,-0.03264 -0.0178,-0.06577 -0.0178,-0.0994c0,-0.06726 0.01978,-0.12957 0.05935,-0.18694l2.32931,-3.34708h-2.1483c-0.07121,0 -0.12512,-0.02225 -0.16172,-0.06676c-0.0366,-0.04451 -0.05489,-0.09446 -0.05489,-0.14985c0,-0.05341 0.0178,-0.10237 0.05341,-0.14688c0.03561,-0.04451 0.09001,-0.06676 0.1632,-0.06676h2.53405c0.08308,0 0.14886,0.02324 0.19732,0.06973c0.04847,0.04649 0.0727,0.10534 0.0727,0.17655c0,0.03165 -0.00544,0.06528 -0.01632,0.10089c-0.01088,0.03561 -0.02918,0.07121 -0.05489,0.10682l-2.33821,3.34708h2.16314c0.07319,0 0.12809,0.02225 0.16468,0.06676c0.0366,0.04451 0.05489,0.09347 0.05489,0.14688c0,0.05539 -0.0183,0.10534 -0.05489,0.14985c-0.0366,0.04451 -0.09149,0.06676 -0.16468,0.06676z" data-paper-data="{&quot;glyphName&quot;:&quot;Z&quot;,&quot;glyphIndex&quot;:9,&quot;word&quot;:2}"></path><path d="M272.62592,311.03938c-0.03363,0 -0.06577,-0.00692 -0.09644,-0.02077c-0.03066,-0.01385 -0.05836,-0.03264 -0.08308,-0.05638c-0.02473,-0.02374 -0.04451,-0.05094 -0.05935,-0.0816c-0.01484,-0.03066 -0.02225,-0.06281 -0.02225,-0.09644v-3.72096c0,-0.03165 0.00593,-0.06281 0.0178,-0.09347c0.01187,-0.03066 0.02918,-0.05786 0.05193,-0.0816c0.02275,-0.02374 0.04896,-0.04303 0.07863,-0.05786c0.02967,-0.01484 0.06231,-0.02225 0.09792,-0.02225h2.21358c0.07319,0 0.12759,0.02225 0.1632,0.06676c0.03561,0.04451 0.05341,0.09347 0.05341,0.14688c0,0.05539 -0.0178,0.10534 -0.05341,0.14985c-0.03561,0.04451 -0.09001,0.06676 -0.1632,0.06676h-1.94059v1.40945h1.84564c0.07517,0 0.13056,0.02225 0.16617,0.06676c0.03561,0.04451 0.05341,0.09347 0.05341,0.14688c0,0.05341 -0.0183,0.10237 -0.05489,0.14688c-0.0366,0.04451 -0.09149,0.06676 -0.16468,0.06676h-1.84564v1.53408h2.02368c0.07319,0 0.12759,0.02225 0.1632,0.06676c0.03561,0.04451 0.05341,0.09347 0.05341,0.14688c0,0.05539 -0.0178,0.10534 -0.05341,0.14985c-0.03561,0.04451 -0.09001,0.06676 -0.1632,0.06676z" data-paper-data="{&quot;glyphName&quot;:&quot;E&quot;,&quot;glyphIndex&quot;:10,&quot;lastGlyphOfWord&quot;:true,&quot;word&quot;:2}"></path><path d="M285.60176,310.3569l1.40352,-3.10673c0.03759,-0.08902 0.07369,-0.16221 0.10831,-0.21958c0.03462,-0.05737 0.07121,-0.10237 0.10979,-0.13501c0.03857,-0.03264 0.08111,-0.05539 0.12759,-0.06825c0.04649,-0.01286 0.10039,-0.01929 0.16172,-0.01929c0.05737,0 0.11127,0.0089 0.16172,0.02671c0.05044,0.0178 0.09446,0.0455 0.13204,0.08308c0.03759,0.03759 0.06726,0.08556 0.08902,0.14391c0.02176,0.05836 0.03264,0.1271 0.03264,0.20623v3.53699c0,0.07715 -0.02572,0.13551 -0.07715,0.17507c-0.05143,0.03956 -0.10781,0.05935 -0.16913,0.05935c-0.05935,0 -0.11375,-0.01929 -0.1632,-0.05786c-0.04945,-0.03857 -0.07418,-0.09743 -0.07418,-0.17655v-3.48357l-1.53408,3.39159c-0.03165,0.07517 -0.07665,0.13204 -0.13501,0.17062c-0.05836,0.03857 -0.12017,0.05786 -0.18545,0.05786c-0.0633,0 -0.12265,-0.0183 -0.17804,-0.05489c-0.05539,-0.0366 -0.0999,-0.09446 -0.13353,-0.17359l-1.52814,-3.36785v3.45984c0,0.07715 -0.02572,0.13551 -0.07715,0.17507c-0.05143,0.03956 -0.10781,0.05935 -0.16913,0.05935c-0.05935,0 -0.11375,-0.01929 -0.1632,-0.05786c-0.04945,-0.03857 -0.07418,-0.09743 -0.07418,-0.17655v-3.53699c0,-0.07913 0.01088,-0.14787 0.03264,-0.20623c0.02176,-0.05836 0.05143,-0.10633 0.08902,-0.14391c0.03759,-0.03759 0.0816,-0.06528 0.13204,-0.08308c0.05044,-0.0178 0.10435,-0.02671 0.16172,-0.02671c0.06132,0 0.11622,0.00643 0.16468,0.01929c0.04847,0.01286 0.09347,0.0361 0.13501,0.06973c0.04154,0.03363 0.08061,0.07962 0.11721,0.13798c0.0366,0.05836 0.07468,0.13204 0.11424,0.22106l1.37385,3.1008z" data-paper-data="{&quot;glyphName&quot;:&quot;M&quot;,&quot;glyphIndex&quot;:11,&quot;firstGlyphOfWord&quot;:true,&quot;word&quot;:3}"></path><path d="M292.03294,307.06027c0,-0.04154 0.00742,-0.07814 0.02225,-0.10979c0.01484,-0.03165 0.03511,-0.05786 0.06083,-0.07863c0.02572,-0.02077 0.0544,-0.0366 0.08605,-0.04748c0.03165,-0.01088 0.06429,-0.01632 0.09792,-0.01632c0.06528,0 0.12512,0.02077 0.17952,0.06231c0.0544,0.04154 0.0816,0.10484 0.0816,0.18991v3.72986c0,0.04154 -0.00742,0.07814 -0.02225,0.10979c-0.01484,0.03165 -0.03511,0.05786 -0.06083,0.07863c-0.02572,0.02077 -0.0544,0.0361 -0.08605,0.04599c-0.03165,0.00989 -0.06429,0.01484 -0.09792,0.01484c-0.06528,0 -0.12512,-0.02077 -0.17952,-0.06231c-0.0544,-0.04154 -0.0816,-0.10385 -0.0816,-0.18694z" data-paper-data="{&quot;glyphName&quot;:&quot;I&quot;,&quot;glyphIndex&quot;:12,&quot;word&quot;:3}"></path><path d="M296.63876,311.03938c-0.03363,0 -0.06577,-0.00692 -0.09644,-0.02077c-0.03066,-0.01385 -0.05836,-0.03264 -0.08308,-0.05638c-0.02473,-0.02374 -0.04451,-0.05094 -0.05935,-0.0816c-0.01484,-0.03066 -0.02225,-0.06281 -0.02225,-0.09644v-3.72096c0,-0.03165 0.00593,-0.06281 0.0178,-0.09347c0.01187,-0.03066 0.02918,-0.05786 0.05193,-0.0816c0.02275,-0.02374 0.04896,-0.04303 0.07863,-0.05786c0.02967,-0.01484 0.06231,-0.02225 0.09792,-0.02225h2.21358c0.07319,0 0.12759,0.02225 0.1632,0.06676c0.03561,0.04451 0.05341,0.09347 0.05341,0.14688c0,0.05539 -0.0178,0.10534 -0.05341,0.14985c-0.03561,0.04451 -0.09001,0.06676 -0.1632,0.06676h-1.94059v1.40945h1.84564c0.07517,0 0.13056,0.02225 0.16617,0.06676c0.03561,0.04451 0.05341,0.09347 0.05341,0.14688c0,0.05341 -0.0183,0.10237 -0.05489,0.14688c-0.0366,0.04451 -0.09149,0.06676 -0.16468,0.06676h-1.84564v1.53408h2.02368c0.07319,0 0.12759,0.02225 0.1632,0.06676c0.03561,0.04451 0.05341,0.09347 0.05341,0.14688c0,0.05539 -0.0178,0.10534 -0.05341,0.14985c-0.03561,0.04451 -0.09001,0.06676 -0.1632,0.06676z" data-paper-data="{&quot;glyphName&quot;:&quot;E&quot;,&quot;glyphIndex&quot;:13,&quot;word&quot;:3}"></path><path d="M303.3663,307.85253c0,0.1266 0.03462,0.23639 0.10385,0.32937c0.06924,0.09297 0.16073,0.1721 0.27447,0.23738c0.11375,0.06528 0.24282,0.12116 0.38723,0.16765c0.14441,0.04649 0.29277,0.09347 0.44509,0.14095c0.16815,0.05341 0.32887,0.11078 0.48218,0.1721c0.15331,0.06132 0.28832,0.13798 0.40503,0.22996c0.11671,0.09199 0.20969,0.20375 0.27892,0.3353c0.06924,0.13155 0.10385,0.29425 0.10385,0.48812c0,0.16419 -0.04006,0.31997 -0.12017,0.46735c-0.08012,0.14737 -0.19139,0.272 -0.33382,0.37388c-0.14243,0.10188 -0.31057,0.17903 -0.50444,0.23145c-0.19386,0.05242 -0.40355,0.07863 -0.62906,0.07863c-0.16221,0 -0.31552,-0.01434 -0.45993,-0.04303c-0.14441,-0.02868 -0.27793,-0.06825 -0.40058,-0.11869c-0.12265,-0.05044 -0.23441,-0.10929 -0.3353,-0.17655c-0.10089,-0.06726 -0.18991,-0.14045 -0.26705,-0.21958c-0.01583,-0.01583 -0.0272,-0.03412 -0.03412,-0.05489c-0.00692,-0.02077 -0.01039,-0.04204 -0.01039,-0.0638c0,-0.02769 0.00544,-0.05588 0.01632,-0.08457c0.01088,-0.02868 0.02522,-0.0544 0.04303,-0.07715c0.0178,-0.02275 0.03759,-0.04154 0.05935,-0.05638c0.02176,-0.01484 0.04352,-0.02225 0.06528,-0.02225c0.03561,0 0.07171,0.01286 0.10831,0.03857c0.0366,0.02572 0.0727,0.05143 0.10831,0.07715c0.0633,0.0455 0.13254,0.0905 0.20771,0.13501c0.07517,0.04451 0.15875,0.08407 0.25073,0.11869c0.09199,0.03462 0.19287,0.06231 0.30266,0.08308c0.10979,0.02077 0.23095,0.03116 0.36349,0.03116c0.14441,0 0.27892,-0.01484 0.40355,-0.04451c0.12463,-0.02967 0.23244,-0.07418 0.32343,-0.13353c0.091,-0.05935 0.16271,-0.13353 0.21513,-0.22255c0.05242,-0.08902 0.07863,-0.18397 0.07863,-0.28486c0,-0.14045 -0.03462,-0.25914 -0.10385,-0.35607c-0.06924,-0.09693 -0.16023,-0.17804 -0.27299,-0.24332c-0.11276,-0.06528 -0.24134,-0.12116 -0.38575,-0.16765c-0.14441,-0.04649 -0.29178,-0.09347 -0.44212,-0.14095c-0.16419,-0.05341 -0.32294,-0.11276 -0.47625,-0.17804c-0.15331,-0.06528 -0.28881,-0.14441 -0.40652,-0.23738c-0.1177,-0.09297 -0.21167,-0.20425 -0.28189,-0.33382c-0.07023,-0.12957 -0.10534,-0.27843 -0.10534,-0.44657c0,-0.16419 0.04055,-0.317 0.12166,-0.45844c0.08111,-0.14144 0.18941,-0.26063 0.32492,-0.35756c0.13551,-0.09693 0.29178,-0.17012 0.46883,-0.21958c0.17705,-0.04945 0.36151,-0.07418 0.5534,-0.07418c0.29475,0 0.55834,0.04649 0.79078,0.13946c0.23244,0.09297 0.43866,0.2354 0.61868,0.42729c0.01583,0.0178 0.02621,0.03759 0.03116,0.05935c0.00495,0.02176 0.00742,0.0455 0.00742,0.07121c0,0.02176 -0.00346,0.0455 -0.01039,0.07121c-0.00692,0.02572 -0.01879,0.04896 -0.03561,0.06973c-0.01681,0.02077 -0.03808,0.03808 -0.0638,0.05193c-0.02572,0.01385 -0.05638,0.02077 -0.09199,0.02077c-0.05737,0 -0.12166,-0.03561 -0.19287,-0.10682c-0.0633,-0.04748 -0.13007,-0.09347 -0.20029,-0.13798c-0.07023,-0.04451 -0.14688,-0.08308 -0.22996,-0.11572c-0.08308,-0.03264 -0.1721,-0.05885 -0.26705,-0.07863c-0.09495,-0.01978 -0.19782,-0.02967 -0.3086,-0.02967c-0.11078,0 -0.22403,0.01286 -0.33975,0.03857c-0.11572,0.02572 -0.22057,0.06528 -0.31453,0.11869c-0.09396,0.05341 -0.17062,0.12265 -0.22996,0.20771c-0.05935,0.08506 -0.08902,0.17606 -0.08902,0.27299z" data-paper-data="{&quot;glyphName&quot;:&quot;S&quot;,&quot;glyphIndex&quot;:14,&quot;word&quot;:3}"></path><path d="M309.56892,311.03938c-0.05737,0 -0.10583,-0.00742 -0.1454,-0.02225c-0.03956,-0.01484 -0.0727,-0.03462 -0.0994,-0.05935c-0.02671,-0.02473 -0.04599,-0.05341 -0.05786,-0.08605c-0.01187,-0.03264 -0.0178,-0.06577 -0.0178,-0.0994c0,-0.06726 0.01978,-0.12957 0.05935,-0.18694l2.32931,-3.34708h-2.1483c-0.07121,0 -0.12512,-0.02225 -0.16172,-0.06676c-0.0366,-0.04451 -0.05489,-0.09446 -0.05489,-0.14985c0,-0.05341 0.0178,-0.10237 0.05341,-0.14688c0.03561,-0.04451 0.09001,-0.06676 0.1632,-0.06676h2.53405c0.08308,0 0.14886,0.02324 0.19732,0.06973c0.04847,0.04649 0.0727,0.10534 0.0727,0.17655c0,0.03165 -0.00544,0.06528 -0.01632,0.10089c-0.01088,0.03561 -0.02918,0.07121 -0.05489,0.10682l-2.33821,3.34708h2.16314c0.07319,0 0.12809,0.02225 0.16468,0.06676c0.0366,0.04451 0.05489,0.09347 0.05489,0.14688c0,0.05539 -0.0183,0.10534 -0.05489,0.14985c-0.0366,0.04451 -0.09149,0.06676 -0.16468,0.06676z" data-paper-data="{&quot;glyphName&quot;:&quot;Z&quot;,&quot;glyphIndex&quot;:15,&quot;word&quot;:3}"></path><path d="M316.54949,310.79309c0,0.04154 -0.00742,0.07764 -0.02225,0.10831c-0.01484,0.03066 -0.03511,0.05638 -0.06083,0.07715c-0.02572,0.02077 -0.0544,0.0361 -0.08605,0.04599c-0.03165,0.00989 -0.0633,0.01484 -0.09495,0.01484c-0.03165,0 -0.06281,-0.00495 -0.09347,-0.01484c-0.03066,-0.00989 -0.05786,-0.02522 -0.0816,-0.04599c-0.02374,-0.02077 -0.04303,-0.04649 -0.05786,-0.07715c-0.01484,-0.03066 -0.02225,-0.06676 -0.02225,-0.10831v-3.73579c0,-0.08308 0.0272,-0.1454 0.0816,-0.18694c0.0544,-0.04154 0.11424,-0.06231 0.17952,-0.06231c0.03165,0 0.06281,0.00544 0.09347,0.01632c0.03066,0.01088 0.05836,0.02671 0.08308,0.04748c0.02473,0.02077 0.04451,0.04649 0.05935,0.07715c0.01484,0.03066 0.02225,0.06676 0.02225,0.10831v1.61716l1.7863,-1.77443c0.02769,-0.03363 0.05836,-0.05737 0.09199,-0.07121c0.03363,-0.01385 0.06726,-0.02077 0.10089,-0.02077c0.0633,0 0.11869,0.02077 0.16617,0.06231c0.04748,0.04154 0.07121,0.09297 0.07121,0.1543c0,0.04945 -0.01978,0.0999 -0.05935,0.15133l-1.60233,1.55188l1.76849,1.89905c0.04352,0.05539 0.06528,0.10979 0.06528,0.1632c0,0.03363 -0.00742,0.06577 -0.02225,0.09644c-0.01484,0.03066 -0.03511,0.05737 -0.06083,0.08012c-0.02572,0.02275 -0.0544,0.04055 -0.08605,0.05341c-0.03165,0.01286 -0.06528,0.01929 -0.10089,0.01929c-0.03561,0 -0.07121,-0.00841 -0.10682,-0.02522c-0.03561,-0.01681 -0.06825,-0.04303 -0.09792,-0.07863l-1.91389,-2.07115z" data-paper-data="{&quot;glyphName&quot;:&quot;K&quot;,&quot;glyphIndex&quot;:16,&quot;word&quot;:3}"></path><path d="M326.14602,310.71891c0.00989,0.03363 0.01484,0.06132 0.01484,0.08308c0,0.03561 -0.00791,0.06825 -0.02374,0.09792c-0.01583,0.02967 -0.03709,0.05489 -0.0638,0.07567c-0.02671,0.02077 -0.05687,0.0366 -0.0905,0.04748c-0.03363,0.01088 -0.06726,0.01632 -0.10089,0.01632c-0.04748,0 -0.09199,-0.01236 -0.13353,-0.03709c-0.04154,-0.02473 -0.07121,-0.06479 -0.08902,-0.12017l-0.37981,-0.94953h-2.09786l-0.37684,0.94953c-0.01978,0.05737 -0.04945,0.09792 -0.08902,0.12166c-0.03956,0.02374 -0.08209,0.03561 -0.12759,0.03561c-0.03363,0 -0.06627,-0.00544 -0.09792,-0.01632c-0.03165,-0.01088 -0.05984,-0.02671 -0.08457,-0.04748c-0.02473,-0.02077 -0.045,-0.0455 -0.06083,-0.07418c-0.01583,-0.02868 -0.02374,-0.05984 -0.02374,-0.09347c0,-0.02572 0.00593,-0.05539 0.0178,-0.08902l1.41242,-3.44797c0.03759,-0.09891 0.07517,-0.17903 0.11276,-0.24035c0.03759,-0.06132 0.07567,-0.10831 0.11424,-0.14095c0.03857,-0.03264 0.07913,-0.0544 0.12166,-0.06528c0.04253,-0.01088 0.08852,-0.01632 0.13798,-0.01632c0.04945,0 0.09545,0.00544 0.13798,0.01632c0.04253,0.01088 0.08358,0.03313 0.12314,0.06676c0.03956,0.03363 0.07764,0.08061 0.11424,0.14095c0.0366,0.06033 0.07468,0.13996 0.11424,0.23887zM324.22916,307.24424l-0.89908,2.28777h1.80113l-0.89612,-2.28777z" data-paper-data="{&quot;glyphName&quot;:&quot;A&quot;,&quot;glyphIndex&quot;:17,&quot;word&quot;:3}"></path><path d="M329.93456,307.15819c0,-0.05539 0.0094,-0.10484 0.02819,-0.14836c0.01879,-0.04352 0.04352,-0.08012 0.07418,-0.10979c0.03066,-0.02967 0.06627,-0.05242 0.10682,-0.06825c0.04055,-0.01583 0.08259,-0.02374 0.12611,-0.02374c0.05737,0 0.11325,0.01385 0.16765,0.04154c0.0544,0.02769 0.10336,0.07121 0.14688,0.13056l2.24622,3.38566v-3.32038c0,-0.03956 0.00692,-0.07418 0.02077,-0.10385c0.01385,-0.02967 0.03264,-0.0544 0.05638,-0.07418c0.02374,-0.01978 0.05044,-0.03462 0.08012,-0.04451c0.02967,-0.00989 0.06033,-0.01484 0.09199,-0.01484c0.02967,0 0.05935,0.00495 0.08902,0.01484c0.02967,0.00989 0.05638,0.02473 0.08012,0.04451c0.02374,0.01978 0.04253,0.04451 0.05638,0.07418c0.01385,0.02967 0.02077,0.06429 0.02077,0.10385v3.64381c0,0.05539 -0.00989,0.10484 -0.02967,0.14836c-0.01978,0.04352 -0.04649,0.08012 -0.08012,0.10979c-0.03363,0.02967 -0.07171,0.05242 -0.11424,0.06825c-0.04253,0.01583 -0.08753,0.02374 -0.13501,0.02374c-0.05737,0 -0.11473,-0.01385 -0.1721,-0.04154c-0.05737,-0.02769 -0.10781,-0.07121 -0.15133,-0.13056l-2.21062,-3.33818v3.27587c0,0.03956 -0.00742,0.07369 -0.02225,0.10237c-0.01484,0.02868 -0.03412,0.05292 -0.05786,0.0727c-0.02374,0.01978 -0.05044,0.03462 -0.08012,0.04451c-0.02967,0.00989 -0.06033,0.01484 -0.09199,0.01484c-0.0633,0 -0.12017,-0.01929 -0.17062,-0.05786c-0.05044,-0.03857 -0.07567,-0.09743 -0.07567,-0.17655z" data-paper-data="{&quot;glyphName&quot;:&quot;N&quot;,&quot;glyphIndex&quot;:18,&quot;word&quot;:3}"></path><path d="M337.1754,307.06027c0,-0.04154 0.00742,-0.07814 0.02225,-0.10979c0.01484,-0.03165 0.03511,-0.05786 0.06083,-0.07863c0.02572,-0.02077 0.0544,-0.0366 0.08605,-0.04748c0.03165,-0.01088 0.06429,-0.01632 0.09792,-0.01632c0.06528,0 0.12512,0.02077 0.17952,0.06231c0.0544,0.04154 0.0816,0.10484 0.0816,0.18991v3.72986c0,0.04154 -0.00742,0.07814 -0.02225,0.10979c-0.01484,0.03165 -0.03511,0.05786 -0.06083,0.07863c-0.02572,0.02077 -0.0544,0.0361 -0.08605,0.04599c-0.03165,0.00989 -0.06429,0.01484 -0.09792,0.01484c-0.06528,0 -0.12512,-0.02077 -0.17952,-0.06231c-0.0544,-0.04154 -0.0816,-0.10385 -0.0816,-0.18694z" data-paper-data="{&quot;glyphName&quot;:&quot;I&quot;,&quot;glyphIndex&quot;:19,&quot;word&quot;:3}"></path><path d="M344.92703,310.71891c0.00989,0.03363 0.01484,0.06132 0.01484,0.08308c0,0.03561 -0.00791,0.06825 -0.02374,0.09792c-0.01583,0.02967 -0.03709,0.05489 -0.0638,0.07567c-0.02671,0.02077 -0.05687,0.0366 -0.0905,0.04748c-0.03363,0.01088 -0.06726,0.01632 -0.10089,0.01632c-0.04748,0 -0.09199,-0.01236 -0.13353,-0.03709c-0.04154,-0.02473 -0.07121,-0.06479 -0.08902,-0.12017l-0.37981,-0.94953h-2.09786l-0.37684,0.94953c-0.01978,0.05737 -0.04945,0.09792 -0.08902,0.12166c-0.03956,0.02374 -0.08209,0.03561 -0.12759,0.03561c-0.03363,0 -0.06627,-0.00544 -0.09792,-0.01632c-0.03165,-0.01088 -0.05984,-0.02671 -0.08457,-0.04748c-0.02473,-0.02077 -0.045,-0.0455 -0.06083,-0.07418c-0.01583,-0.02868 -0.02374,-0.05984 -0.02374,-0.09347c0,-0.02572 0.00593,-0.05539 0.0178,-0.08902l1.41242,-3.44797c0.03759,-0.09891 0.07517,-0.17903 0.11276,-0.24035c0.03759,-0.06132 0.07567,-0.10831 0.11424,-0.14095c0.03857,-0.03264 0.07913,-0.0544 0.12166,-0.06528c0.04253,-0.01088 0.08852,-0.01632 0.13798,-0.01632c0.04945,0 0.09545,0.00544 0.13798,0.01632c0.04253,0.01088 0.08358,0.03313 0.12314,0.06676c0.03956,0.03363 0.07764,0.08061 0.11424,0.14095c0.0366,0.06033 0.07468,0.13996 0.11424,0.23887zM343.01017,307.24424l-0.89908,2.28777h1.80113l-0.89612,-2.28777z" data-paper-data="{&quot;glyphName&quot;:&quot;A&quot;,&quot;glyphIndex&quot;:20,&quot;lastGlyphOfWord&quot;:true,&quot;word&quot;:3}"></path><path d="M198.07607,302.44023v-0.41959h153.84807v0.41959z" data-paper-data="{&quot;isContainerTopLineAboveSecondaryText&quot;:true}"></path><path d="M198.07607,316.27604v-0.41959h153.84807v0.41959z" data-paper-data="{&quot;isContainerBottomLineBelowSecondaryText&quot;:true}"></path></g><g data-paper-data="{&quot;isPrimaryText&quot;:true}" fill="#ffffff" fill-rule="nonzero"><path d="M200.42994,273.00449c0.19395,0 0.35705,0.00882 0.48929,0.02645c0.13224,0.01763 0.25126,0.05069 0.35705,0.09918c0.10579,0.04849 0.20718,0.11681 0.30415,0.20497c0.09698,0.08816 0.20718,0.20718 0.3306,0.35705l9.15101,11.571c-0.03526,-0.37027 -0.06171,-0.72952 -0.07934,-1.07776c-0.01763,-0.34823 -0.02645,-0.67663 -0.02645,-0.98519v-10.19571h3.94075v19.26738h-2.32742c-0.34382,0 -0.63475,-0.0529 -0.87278,-0.15869c-0.23803,-0.10579 -0.46725,-0.29974 -0.68765,-0.58186l-9.08489,-11.47844c0.02645,0.33501 0.04849,0.6634 0.06612,0.98519c0.01763,0.32178 0.02645,0.62373 0.02645,0.90584v10.32795h-3.94075v-19.26738z" data-paper-data="{&quot;glyphName&quot;:&quot;N&quot;,&quot;glyphIndex&quot;:0,&quot;firstGlyphOfWord&quot;:true,&quot;word&quot;:1}"></path><path d="M236.00251,292.27186h-3.46469c-0.3879,0 -0.70748,-0.09036 -0.95874,-0.27109c-0.25126,-0.18073 -0.42537,-0.41215 -0.52235,-0.69426l-1.13726,-3.3589h-7.3261l-1.13726,3.3589c-0.08816,0.24685 -0.26007,0.46945 -0.51574,0.66781c-0.25566,0.19836 -0.56863,0.29754 -0.9389,0.29754h-3.49114l7.45834,-19.26738h4.57551zM223.62484,284.90609h5.26315l-1.77202,-5.27638c-0.11461,-0.33501 -0.24905,-0.72952 -0.40333,-1.18355c-0.15428,-0.45402 -0.30636,-0.94552 -0.45623,-1.47448c-0.14106,0.53778 -0.28652,1.03588 -0.43639,1.49431c-0.14987,0.45843 -0.29093,0.85515 -0.42317,1.19016z" data-paper-data="{&quot;glyphName&quot;:&quot;A&quot;,&quot;glyphIndex&quot;:1,&quot;word&quot;:1}"></path><path d="M246.55527,285.28959c0,1.07555 -0.13444,2.05413 -0.40333,2.93573c-0.26889,0.8816 -0.67442,1.63757 -1.21661,2.26792c-0.54218,0.63034 -1.22322,1.11963 -2.04311,1.46786c-0.81989,0.34823 -1.78524,0.52235 -2.89606,0.52235c-0.50251,0 -0.99841,-0.02645 -1.4877,-0.07934c-0.48929,-0.0529 -0.99841,-0.14106 -1.52737,-0.26448l0.23803,-2.60513c0.01763,-0.22922 0.108,-0.41435 0.27109,-0.55541c0.1631,-0.14106 0.39011,-0.21158 0.68104,-0.21158c0.14987,0 0.33501,0.02424 0.55541,0.07273c0.2204,0.04849 0.48488,0.07273 0.79344,0.07273c0.43198,0 0.80887,-0.05951 1.13065,-0.17852c0.32178,-0.11902 0.58847,-0.31738 0.80005,-0.59508c0.21158,-0.2777 0.37027,-0.64136 0.47606,-1.09098c0.10579,-0.44962 0.15869,-1.00502 0.15869,-1.66622v-12.37767h4.46971z" data-paper-data="{&quot;glyphName&quot;:&quot;J&quot;,&quot;glyphIndex&quot;:2,&quot;word&quot;:1}"></path><path d="M262.13314,273.00449v3.43824h-7.90795v4.49616h6.05659v3.306h-6.05659v4.58873h7.90795v3.43824h-12.40412v-19.26738z" data-paper-data="{&quot;glyphName&quot;:&quot;E&quot;,&quot;glyphIndex&quot;:3,&quot;word&quot;:1}"></path><path d="M274.52404,283.46467c0.17632,0.33501 0.34603,0.68324 0.50912,1.0447c0.1631,0.36146 0.31958,0.73173 0.46945,1.11082c0.14987,-0.3879 0.30856,-0.76479 0.47606,-1.13065c0.1675,-0.36586 0.33942,-0.72071 0.51574,-1.06453l4.94578,-9.73287c0.08816,-0.1675 0.17852,-0.29754 0.27109,-0.39011c0.09257,-0.09257 0.19616,-0.16089 0.31076,-0.20497c0.11461,-0.04408 0.24464,-0.07053 0.39011,-0.07934c0.14546,-0.00882 0.31517,-0.01322 0.50912,-0.01322h3.41179v19.26738h-3.94075v-11.08172c0,-0.53778 0.02645,-1.11963 0.07934,-1.74557l-5.10447,9.90478c-0.15869,0.30856 -0.37248,0.54218 -0.64136,0.70087c-0.26889,0.15869 -0.57524,0.23803 -0.91907,0.23803h-0.6083c-0.34382,0 -0.65018,-0.07934 -0.91907,-0.23803c-0.26889,-0.15869 -0.48268,-0.39231 -0.64136,-0.70087l-5.13091,-9.918c0.03526,0.30856 0.06171,0.61492 0.07934,0.91907c0.01763,0.30415 0.02645,0.58406 0.02645,0.83972v11.08172h-3.94075v-19.26738h3.41179c0.19395,0 0.36366,0.00441 0.50912,0.01322c0.14546,0.00882 0.2755,0.03526 0.39011,0.07934c0.11461,0.04408 0.2182,0.1124 0.31076,0.20497c0.09257,0.09257 0.18293,0.2226 0.27109,0.39011z" data-paper-data="{&quot;glyphName&quot;:&quot;M&quot;,&quot;glyphIndex&quot;:4,&quot;word&quot;:1}"></path><path d="M291.86071,273.00449c0.19395,0 0.35705,0.00882 0.48929,0.02645c0.13224,0.01763 0.25126,0.05069 0.35705,0.09918c0.10579,0.04849 0.20718,0.11681 0.30415,0.20497c0.09698,0.08816 0.20718,0.20718 0.3306,0.35705l9.15101,11.571c-0.03526,-0.37027 -0.06171,-0.72952 -0.07934,-1.07776c-0.01763,-0.34823 -0.02645,-0.67663 -0.02645,-0.98519v-10.19571h3.94075v19.26738h-2.32742c-0.34382,0 -0.63475,-0.0529 -0.87278,-0.15869c-0.23803,-0.10579 -0.46725,-0.29974 -0.68765,-0.58186l-9.08489,-11.47844c0.02645,0.33501 0.04849,0.6634 0.06612,0.98519c0.01763,0.32178 0.02645,0.62373 0.02645,0.90584v10.32795h-3.94075v-19.26738z" data-paper-data="{&quot;glyphName&quot;:&quot;N&quot;,&quot;glyphIndex&quot;:5,&quot;word&quot;:1}"></path><path d="M314.39441,292.27186h-4.49616v-19.26738h4.49616z" data-paper-data="{&quot;glyphName&quot;:&quot;I&quot;,&quot;glyphIndex&quot;:6,&quot;word&quot;:1}"></path><path d="M330.91119,287.28641c0.10579,0 0.21158,0.01984 0.31738,0.05951c0.10579,0.03967 0.20718,0.108 0.30415,0.20497l1.77202,1.86458c-0.77581,1.01384 -1.74777,1.77863 -2.91589,2.29436c-1.16812,0.51574 -2.55003,0.7736 -4.14573,0.7736c-1.46346,0 -2.77484,-0.24905 -3.93414,-0.74716c-1.1593,-0.4981 -2.14229,-1.18575 -2.94895,-2.06294c-0.80666,-0.87719 -1.42599,-1.91748 -1.85797,-3.12087c-0.43198,-1.20338 -0.64798,-2.51036 -0.64798,-3.92092c0,-1.43701 0.24685,-2.75721 0.74054,-3.96059c0.4937,-1.20338 1.18355,-2.24147 2.06956,-3.11425c0.88601,-0.87278 1.94613,-1.55162 3.18037,-2.0365c1.23424,-0.48488 2.59631,-0.72732 4.08622,-0.72732c0.72291,0 1.40395,0.06392 2.04311,0.19175c0.63916,0.12783 1.23644,0.30415 1.79185,0.52896c0.55541,0.22481 1.06674,0.4937 1.53398,0.80666c0.46725,0.31297 0.8816,0.659 1.24306,1.03808l-1.50754,2.02327c-0.09698,0.12342 -0.21158,0.23583 -0.34382,0.33721c-0.13224,0.10138 -0.31738,0.15208 -0.55541,0.15208c-0.15869,0 -0.30856,-0.03526 -0.44962,-0.10579c-0.14106,-0.07053 -0.29093,-0.15648 -0.44962,-0.25787c-0.15869,-0.10138 -0.3328,-0.21158 -0.52235,-0.3306c-0.18954,-0.11902 -0.41435,-0.22922 -0.67442,-0.3306c-0.26007,-0.10138 -0.56422,-0.18734 -0.91246,-0.25787c-0.34823,-0.07053 -0.75597,-0.10579 -1.22322,-0.10579c-0.81107,0 -1.55162,0.14326 -2.22163,0.42978c-0.67002,0.28652 -1.24526,0.69646 -1.72573,1.22983c-0.48047,0.53337 -0.85515,1.17914 -1.12404,1.93732c-0.26889,0.75818 -0.40333,1.60892 -0.40333,2.55223c0,0.98739 0.13444,1.86458 0.40333,2.63158c0.26889,0.76699 0.63475,1.41276 1.09759,1.93732c0.46284,0.52455 1.00282,0.92348 1.61994,1.19677c0.61712,0.2733 1.27832,0.40994 1.9836,0.40994c0.40554,0 0.77581,-0.01984 1.11082,-0.05951c0.33501,-0.03967 0.64577,-0.108 0.93229,-0.20497c0.28652,-0.09698 0.55982,-0.2226 0.81989,-0.37688c0.26007,-0.15428 0.52235,-0.34603 0.78683,-0.57524c0.10579,-0.08816 0.2204,-0.16089 0.34382,-0.2182c0.12342,-0.0573 0.25126,-0.08596 0.3835,-0.08596z" data-paper-data="{&quot;glyphName&quot;:&quot;C&quot;,&quot;glyphIndex&quot;:7,&quot;word&quot;:1}"></path><path d="M344.94186,284.94576v7.3261h-4.46971v-7.3261l-6.98227,-11.94128h3.94075c0.3879,0 0.69646,0.09036 0.92568,0.27109c0.22922,0.18073 0.41435,0.41215 0.55541,0.69426l2.72414,5.60698c0.2204,0.44962 0.42317,0.86397 0.6083,1.24306c0.18514,0.37909 0.34823,0.75377 0.48929,1.12404c0.13224,-0.37909 0.29093,-0.75818 0.47606,-1.13726c0.18514,-0.37909 0.3835,-0.78903 0.59508,-1.22983l2.6977,-5.60698c0.0529,-0.11461 0.12563,-0.22922 0.2182,-0.34382c0.09257,-0.11461 0.19836,-0.2182 0.31738,-0.31076c0.11902,-0.09257 0.25566,-0.1675 0.40994,-0.22481c0.15428,-0.0573 0.32399,-0.08596 0.50912,-0.08596h3.9672z" data-paper-data="{&quot;glyphName&quot;:&quot;Y&quot;,&quot;glyphIndex&quot;:8,&quot;lastGlyphOfWord&quot;:true,&quot;word&quot;:1}"></path></g><g data-paper-data="{&quot;fillRule&quot;:&quot;nonzero&quot;,&quot;fillRuleOriginal&quot;:&quot;nonzero&quot;,&quot;isIcon&quot;:true,&quot;iconStyle&quot;:&quot;standalone&quot;,&quot;selectedEffects&quot;:{&quot;container&quot;:&quot;square_simple_outline2_sharp_upright&quot;,&quot;transformation&quot;:&quot;&quot;,&quot;pattern&quot;:&quot;&quot;},&quot;bounds&quot;:{&quot;x&quot;:227.50671390512062,&quot;y&quot;:153.7238897323061,&quot;width&quot;:94.98677537994976,&quot;height&quot;:94.98609808341385},&quot;widthRatioIconToContainer&quot;:&quot;0.6847405472759736&quot;,&quot;heightRatioIconToContainer&quot;:&quot;0.8495540288783789&quot;,&quot;relativeBoundsIconToContainer&quot;:{&quot;top&quot;:&quot;-5.92266538788444e-7&quot;,&quot;left&quot;:&quot;-5.922665381151148e-7&quot;},&quot;iconType&quot;:&quot;icon&quot;,&quot;rawIconId&quot;:&quot;826a3a74-7d8e-4d67-8f98-825452814cda&quot;,&quot;combineTerms&quot;:&quot;undefined&quot;,&quot;isDetailed&quot;:&quot;false&quot;,&quot;suitableAsStandaloneIcon&quot;:true}" fill-rule="evenodd"><g data-paper-data="{&quot;isPathIcon&quot;:true}"><path d="M227.51281,154.82585c-0.00203,0.01964 -0.00339,0.03996 -0.00406,0.0596c-0.00135,0.02032 -0.00203,0.03996 -0.00203,0.06028v92.54241c0,0.02032 0.00068,0.04064 0.00203,0.06028c0.00068,0.02032 0.00203,0.03996 0.00406,0.0596c0.00203,0.02032 0.00474,0.03996 0.00745,0.0596c0.00271,0.01964 0.0061,0.03928 0.01016,0.05892c0.00406,0.01964 0.00813,0.03928 0.01287,0.05892c0.00497,0.01942 0.01039,0.03861 0.01626,0.05757c0.0061,0.01896 0.01219,0.03793 0.01896,0.05689c0.00677,0.01896 0.01355,0.03725 0.02167,0.05622c0.00745,0.01829 0.01558,0.03657 0.02438,0.05486c0.00813,0.01761 0.01693,0.0359 0.02641,0.05351c0.00948,0.01761 0.01964,0.03454 0.0298,0.05215c0.01039,0.01716 0.021,0.03409 0.03183,0.0508c0.01151,0.01626 0.02303,0.03251 0.03454,0.04877c0.01219,0.01626 0.02438,0.03183 0.03725,0.04741c0.01287,0.0149 0.02574,0.03048 0.03928,0.04538c0.01287,0.01422 0.02709,0.02912 0.04132,0.04335c0.01422,0.01422 0.02845,0.02777 0.04335,0.04132c0.0149,0.01355 0.0298,0.02641 0.04538,0.03928c0.01558,0.01219 0.03116,0.02506 0.04741,0.03657c0.01558,0.01219 0.03183,0.02371 0.04877,0.03454c0.01693,0.01084 0.03319,0.02167 0.0508,0.03183c0.01693,0.01084 0.03454,0.02032 0.05215,0.0298c0.01761,0.00948 0.03522,0.01829 0.05351,0.02709c0.01829,0.00813 0.03657,0.01626 0.05486,0.02438c0.01829,0.00745 0.03725,0.0149 0.05554,0.02167c0.01896,0.00677 0.03793,0.01287 0.05689,0.01829c0.01964,0.0061 0.03861,0.01151 0.05825,0.01626c0.01896,0.00474 0.03861,0.00948 0.05825,0.01287c0.01964,0.00406 0.03928,0.00745 0.05892,0.01084c0.02032,0.00271 0.03996,0.00474 0.0596,0.00677c0.02032,0.00203 0.03996,0.00339 0.06028,0.00474c0.01964,0.00068 0.03996,0.00135 0.0596,0.00135h92.54309c0.02032,0 0.03996,-0.00068 0.0596,-0.00135c0.02032,-0.00135 0.03996,-0.00271 0.06028,-0.00474c0.01964,-0.00203 0.03928,-0.00406 0.05892,-0.00677c0.02032,-0.00339 0.03996,-0.00677 0.0596,-0.01084c0.01964,-0.00339 0.03928,-0.00813 0.05825,-0.01287c0.01964,-0.00474 0.03861,-0.01016 0.05825,-0.01626c0.01896,-0.00542 0.03793,-0.01151 0.05689,-0.01829c0.01829,-0.00677 0.03725,-0.01422 0.05554,-0.02167c0.01829,-0.00813 0.03657,-0.01626 0.05486,-0.02438c0.01829,-0.0088 0.0359,-0.01761 0.05351,-0.02709c0.01761,-0.00948 0.03522,-0.01896 0.05215,-0.0298c0.01693,-0.01016 0.03386,-0.021 0.0508,-0.03183c0.01626,-0.01084 0.03251,-0.02235 0.04877,-0.03454c0.01626,-0.01151 0.03183,-0.02438 0.04741,-0.03657c0.01558,-0.01287 0.03048,-0.02574 0.04538,-0.03928c0.0149,-0.01355 0.02912,-0.02709 0.04335,-0.04132c0.01422,-0.01422 0.02777,-0.02912 0.04132,-0.04335c0.01355,-0.0149 0.02641,-0.03048 0.03928,-0.04538c0.01264,-0.01535 0.02483,-0.03116 0.03657,-0.04741c0.01219,-0.01626 0.02371,-0.03251 0.03522,-0.04877c0.01084,-0.01693 0.02167,-0.03386 0.03183,-0.0508c0.01016,-0.01761 0.02032,-0.03454 0.0298,-0.05215c0.0088,-0.01761 0.01829,-0.0359 0.02641,-0.05351c0.0088,-0.01829 0.01693,-0.03657 0.02438,-0.05486c0.00745,-0.01896 0.0149,-0.03725 0.02167,-0.05622c0.00677,-0.01896 0.01287,-0.03793 0.01896,-0.05689c0.00542,-0.01896 0.01084,-0.03861 0.01626,-0.05757c0.00474,-0.01964 0.0088,-0.03928 0.01287,-0.05892c0.00339,-0.01964 0.00745,-0.03928 0.01016,-0.05892c0.00271,-0.01964 0.00542,-0.03928 0.00745,-0.0596c0.00203,-0.01964 0.00339,-0.03928 0.00474,-0.0596c0.00068,-0.01964 0.00135,-0.03996 0.00135,-0.06028v-92.54241c0,-0.02032 -0.00068,-0.03996 -0.00135,-0.06028c-0.00135,-0.01964 -0.00271,-0.03996 -0.00474,-0.0596c-0.00203,-0.02032 -0.00474,-0.03996 -0.00745,-0.0596c-0.00271,-0.01964 -0.00677,-0.03928 -0.01016,-0.05892c-0.00406,-0.01964 -0.00813,-0.03928 -0.01287,-0.05892c-0.00542,-0.01896 -0.01084,-0.03861 -0.01626,-0.05757c-0.00587,-0.01896 -0.01219,-0.03793 -0.01896,-0.05689c-0.00677,-0.01896 -0.014,-0.0377 -0.02167,-0.05622c-0.00745,-0.01829 -0.01558,-0.03657 -0.02438,-0.05486c-0.00813,-0.01761 -0.01761,-0.0359 -0.02641,-0.05351c-0.00948,-0.01761 -0.01964,-0.03454 -0.0298,-0.05215c-0.01016,-0.01693 -0.021,-0.03386 -0.03183,-0.05012c-0.01151,-0.01693 -0.02303,-0.03319 -0.03522,-0.04944c-0.01151,-0.01626 -0.02371,-0.03183 -0.03657,-0.04741c-0.01287,-0.0149 -0.02574,-0.03048 -0.03928,-0.04538c-0.01355,-0.01422 -0.02709,-0.02912 -0.04132,-0.04335c-0.01422,-0.01422 -0.02845,-0.02777 -0.04335,-0.04132c-0.0149,-0.01355 -0.0298,-0.02641 -0.04538,-0.03928c-0.01558,-0.01219 -0.03116,-0.02438 -0.04741,-0.03657c-0.01626,-0.01219 -0.03251,-0.02371 -0.04877,-0.03454c-0.01693,-0.01084 -0.03386,-0.02167 -0.0508,-0.03183c-0.01693,-0.01084 -0.03454,-0.02032 -0.05215,-0.0298c-0.01761,-0.00948 -0.03522,-0.01829 -0.05351,-0.02709c-0.01829,-0.00813 -0.03657,-0.01626 -0.05486,-0.02438c-0.01829,-0.00745 -0.03725,-0.0149 -0.05554,-0.02167c-0.01896,-0.00677 -0.03793,-0.01287 -0.05689,-0.01829c-0.01964,-0.0061 -0.03861,-0.01151 -0.05825,-0.01626c-0.01896,-0.00474 -0.03861,-0.00948 -0.05825,-0.01287c-0.01964,-0.00406 -0.03928,-0.00745 -0.0596,-0.01016c-0.01964,-0.00339 -0.03928,-0.00542 -0.05892,-0.00745c-0.01987,-0.00226 -0.03996,-0.00384 -0.06028,-0.00474c-0.01964,-0.00068 -0.03928,-0.00135 -0.0596,-0.00135h-92.54309c-0.01964,0 -0.03996,0.00068 -0.0596,0.00135c-0.02032,0.00135 -0.03996,0.00271 -0.06028,0.00474c-0.01964,0.00203 -0.03928,0.00406 -0.0596,0.00745c-0.01964,0.00271 -0.03928,0.0061 -0.05892,0.01016c-0.01964,0.00339 -0.03928,0.00813 -0.05825,0.01287c-0.01964,0.00474 -0.03861,0.01016 -0.05825,0.01626c-0.01896,0.00542 -0.03793,0.01151 -0.05689,0.01829c-0.01829,0.00677 -0.03725,0.01422 -0.05554,0.02167c-0.01829,0.00813 -0.03657,0.01626 -0.05486,0.02438c-0.01829,0.0088 -0.0359,0.01761 -0.05351,0.02709c-0.01761,0.00948 -0.03522,0.01896 -0.05215,0.0298c-0.01761,0.01016 -0.03386,0.021 -0.0508,0.03183c-0.01693,0.01084 -0.03319,0.02235 -0.04877,0.03454c-0.01626,0.01219 -0.03183,0.02438 -0.04741,0.03657c-0.01558,0.01287 -0.03048,0.02574 -0.04538,0.03928c-0.0149,0.01355 -0.02912,0.02709 -0.04335,0.04132c-0.01422,0.01422 -0.02845,0.02912 -0.04132,0.04335c-0.01355,0.0149 -0.02641,0.03048 -0.03928,0.04538c-0.01287,0.01558 -0.02506,0.03116 -0.03725,0.04741c-0.01151,0.01626 -0.02303,0.03251 -0.03454,0.04944c-0.01084,0.01626 -0.02167,0.03319 -0.03183,0.05012c-0.01016,0.01761 -0.02032,0.03454 -0.0298,0.05215c-0.00948,0.01761 -0.01829,0.0359 -0.02641,0.05351c-0.0088,0.01829 -0.01693,0.03657 -0.02438,0.05486c-0.00813,0.01896 -0.0149,0.03725 -0.02167,0.05622c-0.00677,0.01896 -0.01309,0.03793 -0.01896,0.05689c-0.00542,0.01896 -0.01084,0.03861 -0.01626,0.05757c-0.00474,0.01964 -0.0088,0.03928 -0.01287,0.05892c-0.00406,0.01964 -0.00745,0.03928 -0.01016,0.05892c-0.00271,0.01964 -0.00542,0.03928 -0.00745,0.0596zM320.0498,156.1669v90.10008h-90.0994v-90.10008z" fill-opacity="0.6" fill="#ffffff"></path><path d="M296.70746,230.75147l-6.13292,-6.53591l0.32239,7.58504h-0.0806l-28.64693,-70.93191h-8.87665v11.53978l6.29412,6.77838l-0.24179,-8.71477l28.97,71.09311h8.39238z" fill="#ffffff"></path><path d="M290.17087,160.86869l0.0806,50.91915l6.45599,6.77906v-57.69821z" fill="#ffffff"></path><path d="M249.25809,179.26745l22.59461,24.04741v-0.1612c-5.89045,-14.5253 -6.77838,-16.78476 -6.93958,-17.26903l-13.39557,-14.20223h-9.03784v59.7958h6.77838z" fill="#ffffff"></path><path d="M300.74211,223.97309l-21.46488,-22.83708l7.18138,17.6727l11.94345,12.66951h9.11844v-59.7958h-6.77838z" fill="#ffffff"></path><path d="M259.74874,191.53329c0.0806,5.16439 0.0806,8.06999 0.0806,50.0319h-6.53659v-56.89088z" fill="#ffffff"></path></g></g><g data-paper-data="{&quot;isContainerElementsWrapper&quot;:true}" fill="#ffffff" fill-rule="evenodd"><path d="M150.3522,359.04419c0,1.3686 0.48384,2.53672 1.45152,3.50435c0.96777,0.96764 2.13591,1.45146 3.50442,1.45146h239.38385c1.3686,0 2.53672,-0.48382 3.50435,-1.45146c0.96764,-0.96764 1.45146,-2.13575 1.45146,-3.50435v-248.08825c0,-1.36855 -0.48382,-2.53667 -1.45146,-3.50435c-0.96764,-0.96773 -2.13575,-1.45159 -3.50435,-1.45159h-239.38385c-1.36855,0 -2.53669,0.48389 -3.50442,1.45166c-0.96768,0.96768 -1.45152,2.13578 -1.45152,3.50429zM155.30814,361.53869c-0.68877,0 -1.27669,-0.2436 -1.76376,-0.73081c-0.48707,-0.4872 -0.7306,-1.0751 -0.7306,-1.76369v-248.08825c0,-0.68877 0.24353,-1.27669 0.7306,-1.76376c0.48702,-0.48707 1.07494,-0.7306 1.76376,-0.7306h239.38385c0.68859,0 1.27649,0.24356 1.76369,0.73067c0.4872,0.48702 0.73081,1.07492 0.73081,1.76369v248.08825c0,0.68859 -0.2436,1.27649 -0.73081,1.76369c-0.4872,0.4872 -1.0751,0.73081 -1.76369,0.73081z" data-paper-data="{&quot;isBaseLogoContainer&quot;:true}"></path></g></g></g></svg>